<svg width="1651" height="854" viewBox="0 0 1651 854" fill="none" xmlns="http://www.w3.org/2000/svg">
<path d="M0 0H1651C1651 471.651 1268.65 854 797 854H0V0Z" fill="#FF7C6B" fill-opacity="0.1"/>
<path fill-rule="evenodd" clip-rule="evenodd" d="M1250.9 163.564L1288.77 128.668C1288.88 128.79 1289 128.912 1289.11 129.034C1308.43 149.6 1340.75 150.805 1361.54 131.646C1382.34 112.486 1383.78 80.1741 1364.86 59.244C1364.75 59.1205 1364.63 58.9974 1364.52 58.8747L1364.15 59.2135L1326.65 93.7711C1307.37 72.8535 1274.79 71.5201 1253.87 90.7928C1232.96 110.066 1231.62 142.646 1250.9 163.564ZM1361.2 131.278C1381.8 112.306 1383.22 80.3099 1364.49 59.5829L1364.49 59.5844L1364.36 59.6998L1364.24 59.8159L1364.11 59.9327L1363.98 60.0502L1363.85 60.1684L1363.73 60.2873L1363.6 60.4069L1363.46 60.5271L1363.33 60.648L1363.2 60.7696L1363.07 60.8918L1362.94 61.0147L1362.8 61.1383L1362.67 61.2625L1362.53 61.3874L1362.39 61.5129L1362.26 61.6391L1362.12 61.7659L1361.98 61.8934L1361.84 62.0215L1361.7 62.1502L1361.56 62.2796L1361.42 62.4095L1361.28 62.5401L1361.14 62.6714L1360.99 62.8032L1360.85 62.9356L1360.71 63.0686L1360.56 63.2023L1360.42 63.3365L1360.27 63.4714L1360.12 63.6068L1359.97 63.7428L1359.83 63.8794L1359.68 64.0166L1359.53 64.1543L1359.38 64.2926L1359.23 64.4315L1359.08 64.571L1358.92 64.711L1358.77 64.8516L1358.62 64.9927L1358.46 65.1344L1358.31 65.2766L1358.16 65.4194L1358 65.5627L1357.84 65.7066L1357.69 65.851L1357.53 65.9959L1357.37 66.1413L1357.21 66.2873L1357.05 66.4337L1356.89 66.5807L1356.73 66.7282L1356.57 66.8762L1356.41 67.0248L1356.25 67.1738L1356.09 67.3233L1355.93 67.4733L1355.76 67.6238L1355.6 67.7747L1355.43 67.9262L1355.27 68.0781L1355.1 68.2305L1354.94 68.3834L1354.77 68.5367L1354.6 68.6905L1354.44 68.8448L1354.27 68.9995L1354.1 69.1547L1353.93 69.3103L1353.76 69.4664L1353.59 69.6229L1353.42 69.7798L1353.25 69.9372L1353.08 70.095L1352.91 70.2532L1352.74 70.4119L1352.56 70.571L1352.39 70.7304L1352.22 70.8904L1352.04 71.0507L1351.87 71.2114L1351.69 71.3725L1351.52 71.534L1351.34 71.6959L1351.17 71.8582L1350.99 72.0209L1350.81 72.184L1350.64 72.3474L1350.46 72.5112L1350.28 72.6754L1350.1 72.84L1349.92 73.0049L1349.74 73.1702L1349.56 73.3358L1349.38 73.5018L1349.2 73.6682L1349.02 73.8348L1348.84 74.0019L1348.66 74.1693L1348.48 74.337L1348.29 74.505L1348.11 74.6734L1347.93 74.842L1347.74 75.0111L1347.56 75.1804L1347.38 75.35L1347.19 75.52L1347.01 75.6902L1346.82 75.8608L1346.64 76.0316L1346.45 76.2028L1346.27 76.3742L1346.08 76.546L1345.89 76.718L1345.71 76.8903L1345.52 77.0628L1345.33 77.2357L1345.14 77.4088L1344.95 77.5822L1344.77 77.7558L1344.58 77.9297L1344.39 78.1038L1344.2 78.2782L1344.01 78.4529L1343.82 78.6278L1343.63 78.8029L1343.44 78.9783L1343.25 79.1539L1343.06 79.3297L1342.87 79.5058L1342.68 79.6821L1342.48 79.8586L1342.29 80.0353L1342.1 80.2122L1341.91 80.3893L1341.72 80.5667L1341.52 80.7442L1341.33 80.9219L1341.14 81.0998L1340.94 81.2779L1340.75 81.4562L1340.56 81.6347L1340.36 81.8134L1340.17 81.9922L1339.97 82.1712L1339.78 82.3504L1339.58 82.5297L1339.39 82.7092L1339.19 82.8888L1339 83.0686L1338.8 83.2486L1338.61 83.4287L1338.41 83.6089L1338.22 83.7893L1338.02 83.9698L1337.83 84.1504L1337.63 84.3312L1337.43 84.512L1337.24 84.6931L1337.04 84.8742L1336.84 85.0554L1336.65 85.2367L1336.45 85.4182L1336.25 85.5997L1336.06 85.7814L1335.86 85.9631L1335.66 86.1449L1335.46 86.3269L1335.27 86.5088L1335.07 86.6909L1334.87 86.8731L1334.67 87.0553L1334.47 87.2376L1334.28 87.4199L1334.08 87.6024L1333.88 87.7848L1333.68 87.9674L1333.48 88.1499L1333.29 88.3326L1333.09 88.5152L1332.89 88.6979L1332.69 88.8807L1332.49 89.0634L1332.29 89.2462L1332.1 89.4291L1331.9 89.6119L1331.7 89.7948L1331.5 89.9776L1331.3 90.1605L1331.1 90.3434L1330.91 90.5263L1330.71 90.7092L1330.51 90.8921L1330.31 91.075L1330.11 91.2578L1329.91 91.4407L1329.71 91.6235L1329.52 91.8063L1329.32 91.9891L1329.12 92.1719L1328.92 92.3546L1328.72 92.5373L1328.52 92.7199L1328.33 92.9025L1328.13 93.085L1327.93 93.2675L1327.73 93.45L1327.53 93.6323L1327.34 93.8146L1327.14 93.9969L1326.94 94.1791L1326.74 94.3612L1326.55 94.5432L1326.35 94.7251L1326.15 94.907L1325.95 95.0888L1325.76 95.2704L1325.56 95.452L1325.36 95.6335L1325.17 95.8148L1324.97 95.9961L1324.77 96.1773L1324.58 96.3583L1324.38 96.5392L1324.18 96.72L1323.99 96.9007L1323.79 97.0813L1323.6 97.2617L1323.4 97.4419L1323.2 97.6221L1323.01 97.8021L1322.81 97.9819L1322.62 98.1616L1322.42 98.3412L1322.23 98.5205L1322.03 98.6998L1321.84 98.8788L1321.65 99.0577L1321.45 99.2364L1321.26 99.4149L1321.06 99.5933L1320.87 99.7715L1320.68 99.9494L1320.49 100.127L1320.29 100.305L1320.1 100.482L1319.91 100.659L1319.72 100.836L1319.52 101.013L1319.33 101.19L1319.14 101.366L1318.95 101.542L1318.76 101.718L1318.57 101.894L1318.38 102.069L1318.19 102.244L1318 102.419L1317.81 102.594L1317.62 102.769L1317.43 102.943L1317.24 103.117L1317.05 103.291L1316.86 103.464L1316.68 103.637L1316.49 103.81L1316.3 103.983L1316.11 104.155L1315.93 104.327L1315.74 104.499L1315.55 104.671L1315.37 104.842L1315.18 105.013L1315 105.184L1314.81 105.354L1314.63 105.524L1314.44 105.694L1314.26 105.863L1314.08 106.032L1313.89 106.201L1313.71 106.369L1313.53 106.538L1313.35 106.705L1313.16 106.873L1312.98 107.04L1312.8 107.207L1312.62 107.373L1312.44 107.539L1312.26 107.705L1312.08 107.871L1311.9 108.036L1311.72 108.2L1311.54 108.365L1311.37 108.528L1311.19 108.692L1311.01 108.855L1310.84 109.018L1310.66 109.18L1310.48 109.343L1310.31 109.504L1310.13 109.665L1309.96 109.826L1309.78 109.987L1309.61 110.147L1309.44 110.306L1309.26 110.466L1309.09 110.624L1308.92 110.783L1308.75 110.941L1308.58 111.098L1308.41 111.255L1308.24 111.412L1308.07 111.568L1307.9 111.724L1307.73 111.879L1307.56 112.034L1307.39 112.188L1307.23 112.342L1307.06 112.496L1306.89 112.649L1306.73 112.801L1306.56 112.954L1306.4 113.105L1306.24 113.256L1306.07 113.407L1305.91 113.557L1305.75 113.707L1305.58 113.856L1305.42 114.005L1305.26 114.153L1305.1 114.3L1304.94 114.448L1304.78 114.594L1304.62 114.74L1304.47 114.886L1304.31 115.031L1304.15 115.176L1304 115.32L1303.84 115.463L1303.69 115.606L1303.53 115.748L1303.38 115.89L1303.22 116.032L1303.07 116.172L1302.92 116.313L1302.77 116.452L1302.62 116.591L1302.47 116.73L1302.32 116.868L1302.17 117.005L1302.02 117.142L1301.87 117.278L1301.72 117.414L1301.58 117.549L1301.43 117.683L1301.29 117.817L1301.14 117.95L1301 118.083L1300.85 118.215L1300.71 118.346L1300.57 118.477L1300.43 118.607L1300.29 118.737L1300.15 118.866L1300.01 118.994L1299.87 119.122L1299.73 119.249L1299.59 119.375L1299.46 119.501L1299.32 119.626L1299.19 119.75L1299.05 119.874L1298.92 119.997L1298.79 120.12L1298.65 120.241L1298.52 120.363L1298.39 120.483L1298.26 120.603L1298.13 120.722L1298 120.84L1297.88 120.958L1297.75 121.075L1297.62 121.191L1297.5 121.307L1297.37 121.422L1297.25 121.536L1297.13 121.65L1297 121.762L1296.88 121.875L1296.76 121.986L1296.64 122.097L1296.52 122.206L1296.4 122.316L1296.29 122.424L1296.17 122.532L1296.05 122.639L1295.94 122.745L1295.82 122.85L1295.71 122.955L1295.6 123.059L1295.48 123.162L1295.37 123.265L1295.26 123.366L1295.15 123.467L1295.04 123.567L1294.94 123.667L1294.83 123.765L1294.72 123.863L1294.62 123.96L1294.51 124.056L1294.41 124.151L1294.31 124.246L1294.21 124.34L1294.11 124.433L1294.01 124.525L1293.91 124.616L1293.81 124.707L1293.71 124.796L1293.61 124.885L1293.52 124.973L1293.42 125.06L1293.33 125.147L1293.24 125.232L1293.15 125.317L1293.05 125.401L1292.96 125.484L1292.88 125.566L1292.79 125.647L1292.7 125.727L1292.61 125.807L1292.53 125.885L1292.44 125.963L1292.36 126.04L1292.28 126.116L1292.2 126.191L1292.12 126.265L1292.04 126.339L1291.96 126.411L1291.88 126.483L1291.8 126.553L1291.73 126.623L1291.65 126.692L1291.58 126.76L1291.51 126.827L1291.44 126.893L1291.36 126.958L1291.29 127.022L1291.23 127.085L1291.16 127.148L1291.09 127.209L1291.03 127.27L1290.96 127.329L1290.9 127.388L1290.84 127.445L1290.77 127.502L1290.71 127.558L1290.65 127.612L1290.6 127.666L1290.54 127.719L1290.48 127.771L1290.43 127.821L1290.37 127.871L1290.32 127.92L1290.27 127.968L1290.22 128.015L1290.17 128.06L1290.12 128.105L1290.07 128.149L1290.03 128.192L1289.98 128.234L1289.94 128.275L1289.89 128.314L1289.85 128.353L1289.81 128.391L1289.77 128.427L1289.73 128.463L1289.69 128.498L1289.66 128.531L1289.62 128.564L1289.59 128.595L1289.55 128.626L1289.52 128.655L1289.49 128.683L1289.48 128.695C1308.61 149.058 1340.61 150.251 1361.2 131.278Z" fill="#FFDFDE"/>
<path fill-rule="evenodd" clip-rule="evenodd" d="M552.442 137.236L597.286 162.558C597.204 162.703 597.123 162.849 597.042 162.995C583.404 187.693 592.187 218.822 616.808 232.725C641.43 246.628 672.622 238.072 686.727 213.637C686.81 213.493 686.893 213.348 686.975 213.203L686.54 212.957L642.131 187.881C656.116 163.114 647.375 131.699 622.609 117.714C597.842 103.729 566.427 112.469 552.442 137.236ZM617.054 232.29C641.435 246.057 672.322 237.585 686.292 213.391L686.29 213.39L686.141 213.306L685.992 213.222L685.842 213.137L685.691 213.052L685.539 212.966L685.387 212.88L685.233 212.793L685.078 212.706L684.923 212.618L684.767 212.53L684.61 212.441L684.452 212.352L684.293 212.263L684.133 212.172L683.973 212.082L683.812 211.991L683.649 211.899L683.486 211.807L683.323 211.715L683.158 211.622L682.993 211.528L682.826 211.434L682.659 211.34L682.491 211.245L682.323 211.15L682.153 211.054L681.983 210.958L681.812 210.862L681.641 210.765L681.468 210.667L681.295 210.57L681.121 210.471L680.946 210.373L680.77 210.274L680.594 210.174L680.417 210.074L680.239 209.974L680.061 209.873L679.882 209.772L679.702 209.67L679.521 209.568L679.34 209.466L679.158 209.363L678.975 209.26L678.791 209.156L678.607 209.052L678.422 208.948L678.237 208.843L678.051 208.738L677.864 208.632L677.676 208.526L677.488 208.42L677.299 208.313L677.109 208.206L676.919 208.099L676.728 207.991L676.537 207.883L676.345 207.775L676.152 207.666L675.959 207.556L675.765 207.447L675.57 207.337L675.375 207.227L675.179 207.116L674.982 207.005L674.785 206.894L674.588 206.782L674.39 206.67L674.191 206.558L673.991 206.446L673.791 206.333L673.591 206.219L673.39 206.106L673.188 205.992L672.986 205.878L672.783 205.763L672.58 205.648L672.376 205.533L672.171 205.418L671.966 205.302L671.761 205.186L671.555 205.07L671.348 204.953L671.141 204.836L670.934 204.719L670.726 204.602L670.517 204.484L670.308 204.366L670.098 204.247L669.888 204.129L669.678 204.01L669.467 203.891L669.255 203.771L669.043 203.652L668.831 203.532L668.618 203.412L668.405 203.291L668.191 203.17L667.977 203.049L667.762 202.928L667.547 202.807L667.332 202.685L667.116 202.563L666.899 202.441L666.683 202.319L666.465 202.196L666.248 202.073L666.03 201.95L665.811 201.827L665.593 201.703L665.373 201.579L665.154 201.455L664.934 201.331L664.714 201.207L664.493 201.082L664.272 200.957L664.05 200.832L663.829 200.707L663.607 200.582L663.384 200.456L663.161 200.33L662.938 200.204L662.715 200.078L662.491 199.952L662.267 199.825L662.042 199.698L661.818 199.571L661.593 199.444L661.367 199.317L661.142 199.19L660.916 199.062L660.689 198.934L660.463 198.806L660.236 198.678L660.009 198.55L659.782 198.422L659.554 198.293L659.326 198.165L659.098 198.036L658.87 197.907L658.641 197.778L658.412 197.648L658.183 197.519L657.954 197.389L657.724 197.26L657.494 197.13L657.264 197L657.034 196.87L656.803 196.74L656.573 196.61L656.342 196.479L656.111 196.349L655.88 196.218L655.648 196.088L655.417 195.957L655.185 195.826L654.953 195.695L654.721 195.564L654.488 195.433L654.256 195.302L654.023 195.17L653.791 195.039L653.558 194.907L653.325 194.776L653.091 194.644L652.858 194.512L652.625 194.38L652.391 194.249L652.158 194.117L651.924 193.985L651.69 193.853L651.456 193.72L651.222 193.588L650.988 193.456L650.753 193.324L650.519 193.191L650.285 193.059L650.05 192.927L649.816 192.794L649.581 192.662L649.346 192.529L649.112 192.397L648.877 192.264L648.642 192.132L648.407 191.999L648.172 191.866L647.937 191.734L647.702 191.601L647.467 191.468L647.232 191.335L646.997 191.203L646.762 191.07L646.527 190.937L646.292 190.805L646.057 190.672L645.822 190.539L645.587 190.407L645.352 190.274L645.117 190.141L644.882 190.009L644.647 189.876L644.412 189.743L644.178 189.611L643.943 189.478L643.708 189.346L643.474 189.213L643.239 189.081L643.004 188.948L642.77 188.816L642.536 188.683L642.301 188.551L642.067 188.419L641.833 188.287L641.599 188.155L641.365 188.023L641.131 187.891L640.898 187.759L640.664 187.627L640.431 187.495L640.197 187.363L639.964 187.231L639.731 187.1L639.498 186.968L639.265 186.837L639.033 186.705L638.8 186.574L638.568 186.443L638.336 186.312L638.104 186.181L637.872 186.05L637.64 185.919L637.409 185.788L637.177 185.658L636.946 185.527L636.715 185.397L636.484 185.267L636.254 185.136L636.024 185.006L635.794 184.876L635.564 184.747L635.334 184.617L635.105 184.487L634.875 184.358L634.646 184.229L634.418 184.1L634.189 183.971L633.961 183.842L633.733 183.713L633.505 183.584L633.278 183.456L633.051 183.328L632.824 183.199L632.597 183.072L632.371 182.944L632.145 182.816L631.919 182.689L631.694 182.561L631.468 182.434L631.244 182.307L631.019 182.18L630.795 182.054L630.571 181.927L630.347 181.801L630.124 181.675L629.901 181.549L629.679 181.423L629.456 181.298L629.235 181.173L629.013 181.048L628.792 180.923L628.571 180.798L628.351 180.674L628.131 180.549L627.911 180.425L627.692 180.301L627.473 180.178L627.254 180.054L627.036 179.931L626.818 179.808L626.601 179.686L626.384 179.563L626.168 179.441L625.951 179.319L625.736 179.197L625.521 179.076L625.306 178.954L625.091 178.833L624.878 178.712L624.664 178.592L624.451 178.472L624.239 178.352L624.026 178.232L623.815 178.112L623.604 177.993L623.393 177.874L623.183 177.755L622.973 177.637L622.764 177.519L622.555 177.401L622.347 177.283L622.139 177.166L621.932 177.049L621.725 176.932L621.519 176.816L621.313 176.7L621.108 176.584L620.904 176.469L620.7 176.353L620.496 176.238L620.293 176.124L620.091 176.01L619.889 175.896L619.688 175.782L619.487 175.669L619.287 175.555L619.087 175.443L618.888 175.33L618.69 175.218L618.492 175.107L618.295 174.995L618.098 174.884L617.902 174.774L617.706 174.663L617.512 174.553L617.317 174.443L617.124 174.334L616.931 174.225L616.739 174.117L616.547 174.008L616.356 173.9L616.165 173.793L615.976 173.686L615.787 173.579L615.598 173.473L615.41 173.367L615.223 173.261L615.037 173.156L614.851 173.051L614.666 172.946L614.482 172.842L614.298 172.738L614.115 172.635L613.933 172.532L613.751 172.43L613.57 172.327L613.39 172.226L613.21 172.124L613.032 172.023L612.854 171.923L612.676 171.823L612.5 171.723L612.324 171.624L612.149 171.525L611.975 171.427L611.801 171.329L611.629 171.231L611.457 171.134L611.285 171.037L611.115 170.941L610.945 170.845L610.776 170.75L610.608 170.655L610.441 170.561L610.275 170.467L610.109 170.373L609.944 170.28L609.78 170.187L609.617 170.095L609.454 170.003L609.293 169.912L609.132 169.821L608.972 169.731L608.813 169.641L608.655 169.552L608.497 169.463L608.341 169.375L608.185 169.287L608.03 169.199L607.877 169.113L607.724 169.026L607.571 168.94L607.42 168.855L607.27 168.77L607.12 168.685L606.972 168.602L606.824 168.518L606.677 168.435L606.531 168.353L606.386 168.271L606.242 168.19L606.099 168.109L605.957 168.029L605.816 167.949L605.675 167.87L605.536 167.791L605.398 167.713L605.26 167.635L605.124 167.558L604.988 167.482L604.854 167.406L604.72 167.33L604.588 167.255L604.456 167.181L604.325 167.107L604.196 167.034L604.067 166.961L603.939 166.889L603.813 166.818L603.687 166.747L603.563 166.677L603.439 166.607L603.316 166.538L603.195 166.469L603.074 166.401L602.955 166.333L602.837 166.267L602.719 166.2L602.603 166.135L602.488 166.07L602.373 166.005L602.26 165.941L602.148 165.878L602.037 165.815L601.928 165.753L601.819 165.692L601.711 165.631L601.604 165.571L601.499 165.511L601.395 165.452L601.291 165.394L601.189 165.336L601.088 165.279L600.988 165.223L600.889 165.167L600.792 165.112L600.695 165.057L600.6 165.003L600.505 164.95L600.412 164.898L600.32 164.846L600.23 164.795L600.14 164.744L600.052 164.694L599.964 164.645L599.878 164.596L599.793 164.548L599.71 164.501L599.627 164.454L599.546 164.408L599.466 164.363L599.387 164.319L599.309 164.275L599.233 164.232L599.158 164.189L599.084 164.147L599.011 164.106L598.939 164.066L598.869 164.026L598.8 163.987L598.732 163.949L598.666 163.911L598.6 163.874L598.536 163.838L598.473 163.803L598.412 163.768L598.352 163.734L598.293 163.701L598.235 163.668L598.179 163.637L598.124 163.605L598.07 163.575L598.018 163.546L597.967 163.517L597.917 163.489L597.868 163.461L597.821 163.435L597.775 163.409L597.731 163.384L597.688 163.359L597.646 163.336L597.606 163.313L597.567 163.291L597.529 163.269L597.492 163.249L597.478 163.241C583.975 187.699 592.673 218.522 617.054 232.29Z" fill="#FFDFDE"/>
<path d="M858.5 146.963L893.3 167.055C898.25 169.913 901.3 175.195 901.3 180.911V221.095C901.3 226.811 898.25 232.093 893.3 234.951L858.5 255.043C853.55 257.901 847.45 257.901 842.5 255.043L807.7 234.951C802.75 232.093 799.7 226.811 799.7 221.095V180.911C799.7 175.195 802.75 169.913 807.7 167.055L842.5 146.963C847.45 144.105 853.55 144.105 858.5 146.963Z" fill="#FFDFDE"/>
<path fill-rule="evenodd" clip-rule="evenodd" d="M860.5 127.679C854.312 124.107 846.688 124.107 840.5 127.679L792 155.681C785.812 159.254 782 165.856 782 173.001V229.004C782 236.15 785.812 242.752 792 246.325L840.5 274.326C846.688 277.899 854.312 277.899 860.5 274.326L909 246.325C915.188 242.752 919 236.15 919 229.004V173.001C919 165.856 915.188 159.254 909 155.681L860.5 127.679ZM840.5 143.499C846.688 139.926 854.312 139.926 860.5 143.499L895.3 163.591C901.488 167.163 905.3 173.766 905.3 180.911V221.095C905.3 228.24 901.488 234.843 895.3 238.415L860.5 258.507C854.312 262.08 846.688 262.08 840.5 258.507L805.7 238.415C799.512 234.843 795.7 228.24 795.7 221.095V180.911C795.7 173.766 799.512 167.163 805.7 163.591L840.5 143.499Z" fill="#FFDFDE"/>
<path d="M982.716 295.438L986.213 297.456V297.457L985.463 298.757L987.212 299.766C987.864 300.142 988.453 300.598 988.972 301.116L990.032 300.056C991.273 301.296 992.166 302.844 992.62 304.539H992.621L991.172 304.927C991.362 305.635 991.462 306.374 991.462 307.127V309.146H992.962V313.184H991.462V317.222H992.962V321.259H991.462V325.297H992.962V329.335H991.462V333.372H992.962V337.41H991.462V341.448H992.962V345.485H991.462V349.523H992.962V353.562H991.462V355.58C991.462 356.333 991.362 357.072 991.172 357.78L992.62 358.167C992.166 359.862 991.273 361.409 990.032 362.65L988.972 361.591C988.518 362.044 988.01 362.449 987.453 362.796L987.212 362.941L985.463 363.95L986.213 365.25L982.716 367.268L981.967 365.97L978.47 367.988L979.22 369.287L975.722 371.306L974.973 370.007L971.476 372.026L972.226 373.325L968.729 375.344L967.979 374.045L964.482 376.063L965.231 377.362L961.735 379.382L960.985 378.083L957.489 380.102L958.239 381.4L954.741 383.419L953.992 382.12L950.495 384.14L951.245 385.438L947.748 387.457L946.998 386.158L945.25 387.168C944.598 387.545 943.908 387.827 943.2 388.017L943.588 389.466C941.893 389.92 940.106 389.92 938.411 389.466L938.8 388.017C938.092 387.827 937.402 387.545 936.75 387.168L935.002 386.158L934.252 387.457H934.251L930.754 385.438L931.505 384.14L928.008 382.12L927.258 383.419L923.76 381.4L924.511 380.102L921.015 378.083L920.264 379.382L916.768 377.362L917.518 376.063L914.021 374.045L913.27 375.344L909.773 373.325H909.774L910.524 372.026L907.027 370.007L906.277 371.306L902.779 369.287H902.78L903.53 367.988L900.033 365.97L899.283 367.268L895.786 365.25L896.537 363.95L894.788 362.941L894.547 362.796C893.99 362.449 893.482 362.044 893.028 361.591L891.967 362.65C890.726 361.409 889.833 359.862 889.379 358.167L890.828 357.78C890.662 357.161 890.565 356.517 890.543 355.861L890.538 355.58V353.562H889.038V349.523H890.538V345.485H889.038V341.448H890.538V337.41H889.038V333.372H890.538V329.335H889.038V325.297H890.538V321.259H889.038V317.222H890.538V313.184H889.038V309.146H890.538V307.127C890.538 306.374 890.638 305.635 890.828 304.927L889.379 304.539C889.833 302.844 890.726 301.296 891.967 300.056L893.028 301.116C893.547 300.598 894.136 300.142 894.788 299.766L896.537 298.757L895.787 297.457L895.786 297.456L899.283 295.438L900.033 296.737L903.53 294.719L902.78 293.42L902.779 293.419L906.277 291.4L907.027 292.7L910.524 290.681L909.774 289.382L909.773 289.381L913.27 287.362L913.271 287.363L914.021 288.662L917.518 286.644L916.768 285.344L920.264 283.324L920.265 283.325L921.015 284.624L924.511 282.605L923.761 281.307L923.76 281.306L927.258 279.287L928.008 280.587L931.505 278.567L930.755 277.269L930.754 277.268L934.251 275.249L934.252 275.25L935.002 276.549L936.75 275.539C937.402 275.163 938.092 274.88 938.8 274.69L938.412 273.241L938.411 273.24C940.106 272.786 941.893 272.786 943.588 273.24V273.241L943.2 274.69C943.908 274.88 944.598 275.163 945.25 275.539L946.998 276.549L947.748 275.25V275.249L951.245 277.268V277.269L950.495 278.567L953.992 280.587L954.741 279.287L958.239 281.306V281.307L957.489 282.605L960.985 284.624L961.735 283.325V283.324L965.231 285.344H965.232L964.482 286.644L967.979 288.662L968.729 287.363V287.362L972.226 289.381V289.382L971.476 290.681L974.973 292.7L975.722 291.4L979.22 293.419V293.42L978.47 294.719L981.967 296.737L982.716 295.438Z" fill="#FFDFDE" stroke="white" stroke-width="3" stroke-dasharray="4 4"/>
<path d="M1028 219.085C1029.86 218.014 1032.14 218.014 1034 219.085L1053.98 230.621C1055.84 231.693 1056.98 233.674 1056.98 235.817V258.889C1056.98 261.033 1055.84 263.014 1053.98 264.085L1034 275.621C1032.14 276.693 1029.86 276.693 1028 275.621L1008.02 264.085C1006.16 263.014 1005.02 261.033 1005.02 258.889V235.817C1005.02 233.674 1006.16 231.693 1008.02 230.621L1028 219.085Z" fill="#FFDFDE"/>
<path d="M130 230.97L181.962 320.97H78.0385L130 230.97Z" fill="#FFDFDE"/>
<path d="M308.059 328.076L349.076 175L196 216.017L202.937 222.954L337.061 187.015L301.122 321.139L308.059 328.076Z" fill="#FFDFDE"/>
<path d="M292.957 312.974L322.919 201.158L211.102 231.119L292.957 312.974Z" fill="#FFDFDE"/>
<path d="M338.398 384.8L320.466 451.72L271.476 402.731L338.398 384.8Z" fill="#FFDFDE" stroke="white" stroke-width="5"/>
<path d="M337.411 799.741L389.826 773.231L386.767 831.584L337.411 799.741Z" fill="#FFDFDE"/>
<path d="M397.554 702.636L312.212 675.069L330.898 762.238L335.025 758.548L318.652 682.172L393.428 706.326L397.554 702.636Z" fill="#FFDFDE"/>
<path d="M388.571 710.669L326.232 690.532L339.882 754.206L388.571 710.669Z" fill="#FFDFDE"/>
<path d="M431.98 688.903L465.687 699.791L439.36 723.332L431.98 688.903Z" fill="#FFDFDE" stroke="white" stroke-width="5"/>
<path d="M1333.85 333.401L1310.12 279.671L1368.23 285.779L1333.85 333.401Z" fill="#FFDFDE"/>
<path d="M1240.03 268.258L1208.03 352.04L1296.06 337.942L1292.59 333.628L1215.46 345.981L1243.5 272.572L1240.03 268.258Z" fill="#FFDFDE"/>
<path d="M1247.58 277.65L1224.21 338.849L1288.51 328.551L1247.58 277.65Z" fill="#FFDFDE"/>
<path d="M1228.11 233.161L1240.75 200.07L1262.88 227.593L1228.11 233.161Z" fill="#FFDFDE" stroke="white" stroke-width="5"/>
<path d="M490.303 360.834C491.28 361.81 491.28 363.393 490.303 364.369C489.327 365.346 487.744 365.346 486.768 364.369C485.791 363.393 485.791 361.81 486.768 360.834C487.744 359.857 489.327 359.857 490.303 360.834Z" fill="#FFDFDE"/>
<path d="M500.91 350.227C501.886 351.204 501.886 352.786 500.91 353.763C499.934 354.739 498.351 354.739 497.374 353.763C496.398 352.786 496.398 351.204 497.374 350.227C498.351 349.251 499.934 349.251 500.91 350.227Z" fill="#FFDFDE"/>
<path d="M511.517 339.621C512.493 340.597 512.493 342.18 511.517 343.156C510.54 344.132 508.957 344.132 507.981 343.156C507.005 342.18 507.005 340.597 507.981 339.621C508.957 338.644 510.54 338.644 511.517 339.621Z" fill="#FFDFDE"/>
<path d="M522.123 329.014C523.099 329.99 523.099 331.573 522.123 332.55C521.147 333.526 519.564 333.526 518.588 332.55C517.611 331.573 517.611 329.99 518.588 329.014C519.564 328.038 521.147 328.038 522.123 329.014Z" fill="#FFDFDE"/>
<path d="M532.73 318.407C533.706 319.384 533.706 320.967 532.73 321.943C531.753 322.919 530.17 322.919 529.194 321.943C528.218 320.967 528.218 319.384 529.194 318.407C530.17 317.431 531.753 317.431 532.73 318.407Z" fill="#FFDFDE"/>
<path d="M543.336 307.801C544.313 308.777 544.313 310.36 543.336 311.336C542.36 312.313 540.777 312.313 539.801 311.336C538.824 310.36 538.824 308.777 539.801 307.801C540.777 306.824 542.36 306.824 543.336 307.801Z" fill="#FFDFDE"/>
<path d="M553.943 297.194C554.919 298.17 554.919 299.753 553.943 300.73C552.967 301.706 551.384 301.706 550.407 300.73C549.431 299.753 549.431 298.17 550.407 297.194C551.384 296.218 552.967 296.218 553.943 297.194Z" fill="#FFDFDE"/>
<path d="M564.55 286.588C565.526 287.564 565.526 289.147 564.55 290.123C563.573 291.099 561.99 291.099 561.014 290.123C560.038 289.147 560.038 287.564 561.014 286.588C561.99 285.611 563.573 285.611 564.55 286.588Z" fill="#FFDFDE"/>
<path d="M575.156 275.981C576.132 276.957 576.132 278.54 575.156 279.517C574.18 280.493 572.597 280.493 571.621 279.517C570.644 278.54 570.644 276.957 571.621 275.981C572.597 275.005 574.18 275.005 575.156 275.981Z" fill="#FFDFDE"/>
<path d="M585.763 265.374C586.739 266.351 586.739 267.934 585.763 268.91C584.786 269.886 583.203 269.886 582.227 268.91C581.251 267.934 581.251 266.351 582.227 265.374C583.203 264.398 584.786 264.398 585.763 265.374Z" fill="#FFDFDE"/>
<path d="M596.369 254.768C597.346 255.744 597.346 257.327 596.369 258.303C595.393 259.28 593.81 259.28 592.834 258.303C591.857 257.327 591.857 255.744 592.834 254.768C593.81 253.791 595.393 253.791 596.369 254.768Z" fill="#FFDFDE"/>
<path d="M500.91 371.44C501.886 372.417 501.886 374 500.91 374.976C499.934 375.952 498.351 375.952 497.374 374.976C496.398 374 496.398 372.417 497.374 371.44C498.351 370.464 499.934 370.464 500.91 371.44Z" fill="#FFDFDE"/>
<path d="M511.517 360.834C512.493 361.81 512.493 363.393 511.517 364.369C510.54 365.346 508.957 365.346 507.981 364.369C507.005 363.393 507.005 361.81 507.981 360.834C508.957 359.857 510.54 359.857 511.517 360.834Z" fill="#FFDFDE"/>
<path d="M522.123 350.227C523.099 351.204 523.099 352.786 522.123 353.763C521.147 354.739 519.564 354.739 518.588 353.763C517.611 352.786 517.611 351.204 518.588 350.227C519.564 349.251 521.147 349.251 522.123 350.227Z" fill="#FFDFDE"/>
<path d="M532.73 339.621C533.706 340.597 533.706 342.18 532.73 343.156C531.753 344.132 530.17 344.132 529.194 343.156C528.218 342.18 528.218 340.597 529.194 339.621C530.17 338.644 531.753 338.644 532.73 339.621Z" fill="#FFDFDE"/>
<path d="M543.336 329.014C544.313 329.99 544.313 331.573 543.336 332.55C542.36 333.526 540.777 333.526 539.801 332.55C538.824 331.573 538.824 329.99 539.801 329.014C540.777 328.038 542.36 328.038 543.336 329.014Z" fill="#FFDFDE"/>
<path d="M553.943 318.407C554.919 319.384 554.919 320.967 553.943 321.943C552.967 322.919 551.384 322.919 550.407 321.943C549.431 320.967 549.431 319.384 550.407 318.407C551.384 317.431 552.967 317.431 553.943 318.407Z" fill="#FFDFDE"/>
<path d="M564.55 307.801C565.526 308.777 565.526 310.36 564.55 311.336C563.573 312.313 561.99 312.313 561.014 311.336C560.038 310.36 560.038 308.777 561.014 307.801C561.99 306.824 563.573 306.824 564.55 307.801Z" fill="#FFDFDE"/>
<path d="M575.156 297.194C576.132 298.17 576.132 299.753 575.156 300.73C574.18 301.706 572.597 301.706 571.621 300.73C570.644 299.753 570.644 298.17 571.621 297.194C572.597 296.218 574.18 296.218 575.156 297.194Z" fill="#FFDFDE"/>
<path d="M585.763 286.588C586.739 287.564 586.739 289.147 585.763 290.123C584.786 291.099 583.203 291.099 582.227 290.123C581.251 289.147 581.251 287.564 582.227 286.588C583.203 285.611 584.786 285.611 585.763 286.588Z" fill="#FFDFDE"/>
<path d="M596.369 275.981C597.346 276.957 597.346 278.54 596.369 279.517C595.393 280.493 593.81 280.493 592.834 279.517C591.857 278.54 591.857 276.957 592.834 275.981C593.81 275.005 595.393 275.005 596.369 275.981Z" fill="#FFDFDE"/>
<path d="M606.976 265.374C607.952 266.351 607.952 267.934 606.976 268.91C606 269.886 604.417 269.886 603.44 268.91C602.464 267.934 602.464 266.351 603.44 265.374C604.417 264.398 606 264.398 606.976 265.374Z" fill="#FFDFDE"/>
<path d="M511.517 382.047C512.493 383.023 512.493 384.606 511.517 385.583C510.54 386.559 508.957 386.559 507.981 385.583C507.005 384.606 507.005 383.023 507.981 382.047C508.957 381.071 510.54 381.071 511.517 382.047Z" fill="#FFDFDE"/>
<path d="M522.123 371.44C523.099 372.417 523.099 374 522.123 374.976C521.147 375.952 519.564 375.952 518.588 374.976C517.611 374 517.611 372.417 518.588 371.44C519.564 370.464 521.147 370.464 522.123 371.44Z" fill="#FFDFDE"/>
<path d="M532.73 360.834C533.706 361.81 533.706 363.393 532.73 364.369C531.753 365.346 530.17 365.346 529.194 364.369C528.218 363.393 528.218 361.81 529.194 360.834C530.17 359.857 531.753 359.857 532.73 360.834Z" fill="#FFDFDE"/>
<path d="M543.336 350.227C544.313 351.204 544.313 352.786 543.336 353.763C542.36 354.739 540.777 354.739 539.801 353.763C538.824 352.786 538.824 351.204 539.801 350.227C540.777 349.251 542.36 349.251 543.336 350.227Z" fill="#FFDFDE"/>
<path d="M553.943 339.621C554.919 340.597 554.919 342.18 553.943 343.156C552.967 344.132 551.384 344.132 550.407 343.156C549.431 342.18 549.431 340.597 550.407 339.621C551.384 338.644 552.967 338.644 553.943 339.621Z" fill="#FFDFDE"/>
<path d="M564.55 329.014C565.526 329.99 565.526 331.573 564.55 332.55C563.573 333.526 561.99 333.526 561.014 332.55C560.038 331.573 560.038 329.99 561.014 329.014C561.99 328.038 563.573 328.038 564.55 329.014Z" fill="#FFDFDE"/>
<path d="M575.156 318.407C576.132 319.384 576.132 320.967 575.156 321.943C574.18 322.919 572.597 322.919 571.621 321.943C570.644 320.967 570.644 319.384 571.621 318.407C572.597 317.431 574.18 317.431 575.156 318.407Z" fill="#FFDFDE"/>
<path d="M585.763 307.801C586.739 308.777 586.739 310.36 585.763 311.336C584.786 312.313 583.203 312.313 582.227 311.336C581.251 310.36 581.251 308.777 582.227 307.801C583.203 306.824 584.786 306.824 585.763 307.801Z" fill="#FFDFDE"/>
<path d="M596.369 297.194C597.346 298.17 597.346 299.753 596.369 300.73C595.393 301.706 593.81 301.706 592.834 300.73C591.857 299.753 591.857 298.17 592.834 297.194C593.81 296.218 595.393 296.218 596.369 297.194Z" fill="#FFDFDE"/>
<path d="M606.976 286.588C607.952 287.564 607.952 289.147 606.976 290.123C606 291.099 604.417 291.099 603.44 290.123C602.464 289.147 602.464 287.564 603.44 286.588C604.417 285.611 606 285.611 606.976 286.588Z" fill="#FFDFDE"/>
<path d="M617.583 275.981C618.559 276.957 618.559 278.54 617.583 279.517C616.606 280.493 615.023 280.493 614.047 279.517C613.071 278.54 613.071 276.957 614.047 275.981C615.023 275.005 616.606 275.005 617.583 275.981Z" fill="#FFDFDE"/>
<path d="M522.123 392.654C523.099 393.63 523.099 395.213 522.123 396.189C521.147 397.165 519.564 397.165 518.588 396.189C517.611 395.213 517.611 393.63 518.588 392.654C519.564 391.677 521.147 391.677 522.123 392.654Z" fill="#FFDFDE"/>
<path d="M532.73 382.047C533.706 383.023 533.706 384.606 532.73 385.583C531.753 386.559 530.17 386.559 529.194 385.583C528.218 384.606 528.218 383.023 529.194 382.047C530.17 381.071 531.753 381.071 532.73 382.047Z" fill="#FFDFDE"/>
<path d="M543.336 371.44C544.313 372.417 544.313 374 543.336 374.976C542.36 375.952 540.777 375.952 539.801 374.976C538.824 374 538.824 372.417 539.801 371.44C540.777 370.464 542.36 370.464 543.336 371.44Z" fill="#FFDFDE"/>
<path d="M553.943 360.834C554.919 361.81 554.919 363.393 553.943 364.369C552.967 365.346 551.384 365.346 550.407 364.369C549.431 363.393 549.431 361.81 550.407 360.834C551.384 359.857 552.967 359.857 553.943 360.834Z" fill="#FFDFDE"/>
<path d="M564.55 350.227C565.526 351.204 565.526 352.786 564.55 353.763C563.573 354.739 561.99 354.739 561.014 353.763C560.038 352.786 560.038 351.204 561.014 350.227C561.99 349.251 563.573 349.251 564.55 350.227Z" fill="#FFDFDE"/>
<path d="M575.156 339.621C576.132 340.597 576.132 342.18 575.156 343.156C574.18 344.132 572.597 344.132 571.621 343.156C570.644 342.18 570.644 340.597 571.621 339.621C572.597 338.644 574.18 338.644 575.156 339.621Z" fill="#FFDFDE"/>
<path d="M585.763 329.014C586.739 329.99 586.739 331.573 585.763 332.55C584.786 333.526 583.203 333.526 582.227 332.55C581.251 331.573 581.251 329.99 582.227 329.014C583.203 328.038 584.786 328.038 585.763 329.014Z" fill="#FFDFDE"/>
<path d="M596.369 318.407C597.346 319.384 597.346 320.967 596.369 321.943C595.393 322.919 593.81 322.919 592.834 321.943C591.857 320.967 591.857 319.384 592.834 318.407C593.81 317.431 595.393 317.431 596.369 318.407Z" fill="#FFDFDE"/>
<path d="M606.976 307.801C607.952 308.777 607.952 310.36 606.976 311.336C606 312.313 604.417 312.313 603.44 311.336C602.464 310.36 602.464 308.777 603.44 307.801C604.417 306.824 606 306.824 606.976 307.801Z" fill="#FFDFDE"/>
<path d="M617.583 297.194C618.559 298.17 618.559 299.753 617.583 300.73C616.606 301.706 615.023 301.706 614.047 300.73C613.071 299.753 613.071 298.17 614.047 297.194C615.023 296.218 616.606 296.218 617.583 297.194Z" fill="#FFDFDE"/>
<path d="M628.189 286.588C629.165 287.564 629.165 289.147 628.189 290.123C627.213 291.099 625.63 291.099 624.654 290.123C623.677 289.147 623.677 287.564 624.654 286.588C625.63 285.611 627.213 285.611 628.189 286.588Z" fill="#FFDFDE"/>
<path d="M532.73 403.26C533.706 404.237 533.706 405.819 532.73 406.796C531.753 407.772 530.17 407.772 529.194 406.796C528.218 405.819 528.218 404.237 529.194 403.26C530.17 402.284 531.753 402.284 532.73 403.26Z" fill="#FFDFDE"/>
<path d="M543.336 392.654C544.313 393.63 544.313 395.213 543.336 396.189C542.36 397.165 540.777 397.165 539.801 396.189C538.824 395.213 538.824 393.63 539.801 392.654C540.777 391.677 542.36 391.677 543.336 392.654Z" fill="#FFDFDE"/>
<path d="M553.943 382.047C554.919 383.023 554.919 384.606 553.943 385.583C552.967 386.559 551.384 386.559 550.407 385.583C549.431 384.606 549.431 383.023 550.407 382.047C551.384 381.071 552.967 381.071 553.943 382.047Z" fill="#FFDFDE"/>
<path d="M564.55 371.44C565.526 372.417 565.526 374 564.55 374.976C563.573 375.952 561.99 375.952 561.014 374.976C560.038 374 560.038 372.417 561.014 371.44C561.99 370.464 563.573 370.464 564.55 371.44Z" fill="#FFDFDE"/>
<path d="M575.156 360.834C576.132 361.81 576.132 363.393 575.156 364.369C574.18 365.346 572.597 365.346 571.621 364.369C570.644 363.393 570.644 361.81 571.621 360.834C572.597 359.857 574.18 359.857 575.156 360.834Z" fill="#FFDFDE"/>
<path d="M585.763 350.227C586.739 351.204 586.739 352.786 585.763 353.763C584.786 354.739 583.203 354.739 582.227 353.763C581.251 352.786 581.251 351.204 582.227 350.227C583.203 349.251 584.786 349.251 585.763 350.227Z" fill="#FFDFDE"/>
<path d="M596.369 339.621C597.346 340.597 597.346 342.18 596.369 343.156C595.393 344.132 593.81 344.132 592.834 343.156C591.857 342.18 591.857 340.597 592.834 339.621C593.81 338.644 595.393 338.644 596.369 339.621Z" fill="#FFDFDE"/>
<path d="M606.976 329.014C607.952 329.99 607.952 331.573 606.976 332.55C606 333.526 604.417 333.526 603.44 332.55C602.464 331.573 602.464 329.99 603.44 329.014C604.417 328.038 606 328.038 606.976 329.014Z" fill="#FFDFDE"/>
<path d="M617.583 318.407C618.559 319.384 618.559 320.967 617.583 321.943C616.606 322.919 615.023 322.919 614.047 321.943C613.071 320.967 613.071 319.384 614.047 318.407C615.023 317.431 616.606 317.431 617.583 318.407Z" fill="#FFDFDE"/>
<path d="M628.189 307.801C629.165 308.777 629.165 310.36 628.189 311.336C627.213 312.313 625.63 312.313 624.654 311.336C623.677 310.36 623.677 308.777 624.654 307.801C625.63 306.824 627.213 306.824 628.189 307.801Z" fill="#FFDFDE"/>
<path d="M638.796 297.194C639.772 298.17 639.772 299.753 638.796 300.73C637.819 301.706 636.236 301.706 635.26 300.73C634.284 299.753 634.284 298.17 635.26 297.194C636.236 296.218 637.819 296.218 638.796 297.194Z" fill="#FFDFDE"/>
<path d="M543.336 413.867C544.313 414.843 544.313 416.426 543.336 417.402C542.36 418.379 540.777 418.379 539.801 417.402C538.824 416.426 538.824 414.843 539.801 413.867C540.777 412.89 542.36 412.89 543.336 413.867Z" fill="#FFDFDE"/>
<path d="M553.943 403.26C554.919 404.237 554.919 405.819 553.943 406.796C552.967 407.772 551.384 407.772 550.407 406.796C549.431 405.819 549.431 404.237 550.407 403.26C551.384 402.284 552.967 402.284 553.943 403.26Z" fill="#FFDFDE"/>
<path d="M564.55 392.654C565.526 393.63 565.526 395.213 564.55 396.189C563.573 397.165 561.99 397.165 561.014 396.189C560.038 395.213 560.038 393.63 561.014 392.654C561.99 391.677 563.573 391.677 564.55 392.654Z" fill="#FFDFDE"/>
<path d="M575.156 382.047C576.132 383.023 576.132 384.606 575.156 385.583C574.18 386.559 572.597 386.559 571.621 385.583C570.644 384.606 570.644 383.023 571.621 382.047C572.597 381.071 574.18 381.071 575.156 382.047Z" fill="#FFDFDE"/>
<path d="M585.763 371.44C586.739 372.417 586.739 374 585.763 374.976C584.786 375.952 583.203 375.952 582.227 374.976C581.251 374 581.251 372.417 582.227 371.44C583.203 370.464 584.786 370.464 585.763 371.44Z" fill="#FFDFDE"/>
<path d="M596.369 360.834C597.346 361.81 597.346 363.393 596.369 364.369C595.393 365.346 593.81 365.346 592.834 364.369C591.857 363.393 591.857 361.81 592.834 360.834C593.81 359.857 595.393 359.857 596.369 360.834Z" fill="#FFDFDE"/>
<path d="M606.976 350.227C607.952 351.204 607.952 352.786 606.976 353.763C606 354.739 604.417 354.739 603.44 353.763C602.464 352.786 602.464 351.204 603.44 350.227C604.417 349.251 606 349.251 606.976 350.227Z" fill="#FFDFDE"/>
<path d="M617.583 339.621C618.559 340.597 618.559 342.18 617.583 343.156C616.606 344.132 615.023 344.132 614.047 343.156C613.071 342.18 613.071 340.597 614.047 339.621C615.023 338.644 616.606 338.644 617.583 339.621Z" fill="#FFDFDE"/>
<path d="M628.189 329.014C629.165 329.99 629.165 331.573 628.189 332.55C627.213 333.526 625.63 333.526 624.654 332.55C623.677 331.573 623.677 329.99 624.654 329.014C625.63 328.038 627.213 328.038 628.189 329.014Z" fill="#FFDFDE"/>
<path d="M638.796 318.407C639.772 319.384 639.772 320.967 638.796 321.943C637.819 322.919 636.237 322.919 635.26 321.943C634.284 320.967 634.284 319.384 635.26 318.407C636.236 317.431 637.819 317.431 638.796 318.407Z" fill="#FFDFDE"/>
<path d="M649.402 307.801C650.379 308.777 650.379 310.36 649.402 311.336C648.426 312.313 646.843 312.313 645.867 311.336C644.89 310.36 644.89 308.777 645.867 307.801C646.843 306.824 648.426 306.824 649.402 307.801Z" fill="#FFDFDE"/>
<path d="M553.943 424.473C554.919 425.45 554.919 427.033 553.943 428.009C552.967 428.985 551.384 428.985 550.407 428.009C549.431 427.033 549.431 425.45 550.407 424.473C551.384 423.497 552.967 423.497 553.943 424.473Z" fill="#FFDFDE"/>
<path d="M564.55 413.867C565.526 414.843 565.526 416.426 564.55 417.402C563.573 418.379 561.99 418.379 561.014 417.402C560.038 416.426 560.038 414.843 561.014 413.867C561.99 412.89 563.573 412.89 564.55 413.867Z" fill="#FFDFDE"/>
<path d="M575.156 403.26C576.132 404.237 576.132 405.819 575.156 406.796C574.18 407.772 572.597 407.772 571.621 406.796C570.644 405.819 570.644 404.237 571.621 403.26C572.597 402.284 574.18 402.284 575.156 403.26Z" fill="#FFDFDE"/>
<path d="M585.763 392.654C586.739 393.63 586.739 395.213 585.763 396.189C584.786 397.165 583.203 397.165 582.227 396.189C581.251 395.213 581.251 393.63 582.227 392.654C583.203 391.677 584.786 391.677 585.763 392.654Z" fill="#FFDFDE"/>
<path d="M596.369 382.047C597.346 383.023 597.346 384.606 596.369 385.583C595.393 386.559 593.81 386.559 592.834 385.583C591.857 384.606 591.857 383.023 592.834 382.047C593.81 381.071 595.393 381.071 596.369 382.047Z" fill="#FFDFDE"/>
<path d="M606.976 371.44C607.952 372.417 607.952 374 606.976 374.976C606 375.952 604.417 375.952 603.44 374.976C602.464 374 602.464 372.417 603.44 371.44C604.417 370.464 606 370.464 606.976 371.44Z" fill="#FFDFDE"/>
<path d="M617.583 360.834C618.559 361.81 618.559 363.393 617.583 364.369C616.606 365.346 615.023 365.346 614.047 364.369C613.071 363.393 613.071 361.81 614.047 360.834C615.023 359.857 616.606 359.857 617.583 360.834Z" fill="#FFDFDE"/>
<path d="M628.189 350.227C629.165 351.204 629.165 352.786 628.189 353.763C627.213 354.739 625.63 354.739 624.654 353.763C623.677 352.786 623.677 351.204 624.654 350.227C625.63 349.251 627.213 349.251 628.189 350.227Z" fill="#FFDFDE"/>
<path d="M638.796 339.621C639.772 340.597 639.772 342.18 638.796 343.156C637.819 344.132 636.237 344.132 635.26 343.156C634.284 342.18 634.284 340.597 635.26 339.621C636.237 338.644 637.819 338.644 638.796 339.621Z" fill="#FFDFDE"/>
<path d="M649.402 329.014C650.379 329.99 650.379 331.573 649.402 332.55C648.426 333.526 646.843 333.526 645.867 332.55C644.89 331.573 644.89 329.99 645.867 329.014C646.843 328.038 648.426 328.038 649.402 329.014Z" fill="#FFDFDE"/>
<path d="M660.009 318.407C660.985 319.384 660.985 320.967 660.009 321.943C659.033 322.919 657.45 322.919 656.473 321.943C655.497 320.967 655.497 319.384 656.473 318.407C657.45 317.431 659.033 317.431 660.009 318.407Z" fill="#FFDFDE"/>
<path d="M564.55 435.08C565.526 436.056 565.526 437.639 564.55 438.616C563.573 439.592 561.99 439.592 561.014 438.616C560.038 437.639 560.038 436.056 561.014 435.08C561.99 434.104 563.573 434.104 564.55 435.08Z" fill="#FFDFDE"/>
<path d="M575.156 424.473C576.132 425.45 576.132 427.033 575.156 428.009C574.18 428.985 572.597 428.985 571.621 428.009C570.644 427.033 570.644 425.45 571.621 424.473C572.597 423.497 574.18 423.497 575.156 424.473Z" fill="#FFDFDE"/>
<path d="M585.763 413.867C586.739 414.843 586.739 416.426 585.763 417.402C584.786 418.379 583.203 418.379 582.227 417.402C581.251 416.426 581.251 414.843 582.227 413.867C583.203 412.89 584.786 412.89 585.763 413.867Z" fill="#FFDFDE"/>
<path d="M596.369 403.26C597.346 404.237 597.346 405.819 596.369 406.796C595.393 407.772 593.81 407.772 592.834 406.796C591.857 405.819 591.857 404.237 592.834 403.26C593.81 402.284 595.393 402.284 596.369 403.26Z" fill="#FFDFDE"/>
<path d="M606.976 392.654C607.952 393.63 607.952 395.213 606.976 396.189C606 397.165 604.417 397.165 603.44 396.189C602.464 395.213 602.464 393.63 603.44 392.654C604.417 391.677 606 391.677 606.976 392.654Z" fill="#FFDFDE"/>
<path d="M617.583 382.047C618.559 383.023 618.559 384.606 617.583 385.583C616.606 386.559 615.023 386.559 614.047 385.583C613.071 384.606 613.071 383.023 614.047 382.047C615.023 381.071 616.606 381.071 617.583 382.047Z" fill="#FFDFDE"/>
<path d="M628.189 371.44C629.165 372.417 629.165 374 628.189 374.976C627.213 375.952 625.63 375.952 624.654 374.976C623.677 374 623.677 372.417 624.654 371.44C625.63 370.464 627.213 370.464 628.189 371.44Z" fill="#FFDFDE"/>
<path d="M638.796 360.834C639.772 361.81 639.772 363.393 638.796 364.369C637.819 365.346 636.237 365.346 635.26 364.369C634.284 363.393 634.284 361.81 635.26 360.834C636.237 359.857 637.819 359.857 638.796 360.834Z" fill="#FFDFDE"/>
<path d="M649.402 350.227C650.379 351.204 650.379 352.786 649.402 353.763C648.426 354.739 646.843 354.739 645.867 353.763C644.89 352.786 644.89 351.204 645.867 350.227C646.843 349.251 648.426 349.251 649.402 350.227Z" fill="#FFDFDE"/>
<path d="M660.009 339.621C660.985 340.597 660.985 342.18 660.009 343.156C659.033 344.132 657.45 344.132 656.473 343.156C655.497 342.18 655.497 340.597 656.473 339.621C657.45 338.644 659.033 338.644 660.009 339.621Z" fill="#FFDFDE"/>
<path d="M670.616 329.014C671.592 329.99 671.592 331.573 670.616 332.55C669.639 333.526 668.056 333.526 667.08 332.55C666.104 331.573 666.104 329.99 667.08 329.014C668.056 328.038 669.639 328.038 670.616 329.014Z" fill="#FFDFDE"/>
<path d="M575.156 445.687C576.132 446.663 576.132 448.246 575.156 449.222C574.18 450.198 572.597 450.198 571.621 449.222C570.644 448.246 570.644 446.663 571.621 445.687C572.597 444.71 574.18 444.71 575.156 445.687Z" fill="#FFDFDE"/>
<path d="M585.763 435.08C586.739 436.056 586.739 437.639 585.763 438.616C584.786 439.592 583.203 439.592 582.227 438.616C581.251 437.639 581.251 436.056 582.227 435.08C583.203 434.104 584.786 434.104 585.763 435.08Z" fill="#FFDFDE"/>
<path d="M596.369 424.473C597.346 425.45 597.346 427.033 596.369 428.009C595.393 428.985 593.81 428.985 592.834 428.009C591.857 427.033 591.857 425.45 592.834 424.473C593.81 423.497 595.393 423.497 596.369 424.473Z" fill="#FFDFDE"/>
<path d="M606.976 413.867C607.952 414.843 607.952 416.426 606.976 417.402C606 418.379 604.417 418.379 603.44 417.402C602.464 416.426 602.464 414.843 603.44 413.867C604.417 412.89 606 412.89 606.976 413.867Z" fill="#FFDFDE"/>
<path d="M617.583 403.26C618.559 404.237 618.559 405.819 617.583 406.796C616.606 407.772 615.023 407.772 614.047 406.796C613.071 405.819 613.071 404.237 614.047 403.26C615.023 402.284 616.606 402.284 617.583 403.26Z" fill="#FFDFDE"/>
<path d="M628.189 392.654C629.165 393.63 629.165 395.213 628.189 396.189C627.213 397.165 625.63 397.165 624.654 396.189C623.677 395.213 623.677 393.63 624.654 392.654C625.63 391.677 627.213 391.677 628.189 392.654Z" fill="#FFDFDE"/>
<path d="M638.796 382.047C639.772 383.023 639.772 384.606 638.796 385.583C637.819 386.559 636.237 386.559 635.26 385.583C634.284 384.606 634.284 383.023 635.26 382.047C636.237 381.071 637.819 381.071 638.796 382.047Z" fill="#FFDFDE"/>
<path d="M649.402 371.44C650.379 372.417 650.379 374 649.402 374.976C648.426 375.952 646.843 375.952 645.867 374.976C644.89 374 644.89 372.417 645.867 371.44C646.843 370.464 648.426 370.464 649.402 371.44Z" fill="#FFDFDE"/>
<path d="M660.009 360.834C660.985 361.81 660.985 363.393 660.009 364.369C659.033 365.346 657.45 365.346 656.473 364.369C655.497 363.393 655.497 361.81 656.473 360.834C657.45 359.857 659.033 359.857 660.009 360.834Z" fill="#FFDFDE"/>
<path d="M670.616 350.227C671.592 351.204 671.592 352.786 670.616 353.763C669.639 354.739 668.056 354.739 667.08 353.763C666.104 352.786 666.104 351.204 667.08 350.227C668.056 349.251 669.639 349.251 670.616 350.227Z" fill="#FFDFDE"/>
<path d="M681.222 339.621C682.198 340.597 682.198 342.18 681.222 343.156C680.246 344.132 678.663 344.132 677.687 343.156C676.71 342.18 676.71 340.597 677.687 339.621C678.663 338.644 680.246 338.644 681.222 339.621Z" fill="#FFDFDE"/>
<path d="M585.763 456.293C586.739 457.27 586.739 458.852 585.763 459.829C584.786 460.805 583.203 460.805 582.227 459.829C581.251 458.852 581.251 457.27 582.227 456.293C583.203 455.317 584.786 455.317 585.763 456.293Z" fill="#FFDFDE"/>
<path d="M596.369 445.687C597.346 446.663 597.346 448.246 596.369 449.222C595.393 450.198 593.81 450.198 592.834 449.222C591.857 448.246 591.857 446.663 592.834 445.687C593.81 444.71 595.393 444.71 596.369 445.687Z" fill="#FFDFDE"/>
<path d="M606.976 435.08C607.952 436.056 607.952 437.639 606.976 438.616C606 439.592 604.417 439.592 603.44 438.616C602.464 437.639 602.464 436.056 603.44 435.08C604.417 434.104 606 434.104 606.976 435.08Z" fill="#FFDFDE"/>
<path d="M617.583 424.473C618.559 425.45 618.559 427.033 617.583 428.009C616.606 428.985 615.023 428.985 614.047 428.009C613.071 427.033 613.071 425.45 614.047 424.473C615.023 423.497 616.606 423.497 617.583 424.473Z" fill="#FFDFDE"/>
<path d="M628.189 413.867C629.165 414.843 629.165 416.426 628.189 417.402C627.213 418.379 625.63 418.379 624.654 417.402C623.677 416.426 623.677 414.843 624.654 413.867C625.63 412.89 627.213 412.89 628.189 413.867Z" fill="#FFDFDE"/>
<path d="M638.796 403.26C639.772 404.237 639.772 405.819 638.796 406.796C637.819 407.772 636.236 407.772 635.26 406.796C634.284 405.819 634.284 404.237 635.26 403.26C636.237 402.284 637.819 402.284 638.796 403.26Z" fill="#FFDFDE"/>
<path d="M649.402 392.654C650.379 393.63 650.379 395.213 649.402 396.189C648.426 397.165 646.843 397.165 645.867 396.189C644.89 395.213 644.89 393.63 645.867 392.654C646.843 391.677 648.426 391.677 649.402 392.654Z" fill="#FFDFDE"/>
<path d="M660.009 382.047C660.985 383.023 660.985 384.606 660.009 385.583C659.033 386.559 657.45 386.559 656.473 385.583C655.497 384.606 655.497 383.023 656.473 382.047C657.45 381.071 659.033 381.071 660.009 382.047Z" fill="#FFDFDE"/>
<path d="M670.616 371.44C671.592 372.417 671.592 374 670.616 374.976C669.639 375.952 668.056 375.952 667.08 374.976C666.104 374 666.104 372.417 667.08 371.44C668.056 370.464 669.639 370.464 670.616 371.44Z" fill="#FFDFDE"/>
<path d="M681.222 360.834C682.198 361.81 682.198 363.393 681.222 364.369C680.246 365.346 678.663 365.346 677.687 364.369C676.71 363.393 676.71 361.81 677.687 360.834C678.663 359.857 680.246 359.857 681.222 360.834Z" fill="#FFDFDE"/>
<path d="M691.829 350.227C692.805 351.204 692.805 352.786 691.829 353.763C690.852 354.739 689.27 354.739 688.293 353.763C687.317 352.786 687.317 351.204 688.293 350.227C689.27 349.251 690.852 349.251 691.829 350.227Z" fill="#FFDFDE"/>
<path d="M596.369 466.9C597.346 467.876 597.346 469.459 596.369 470.435C595.393 471.412 593.81 471.412 592.834 470.435C591.857 469.459 591.857 467.876 592.834 466.9C593.81 465.924 595.393 465.924 596.369 466.9Z" fill="#FFDFDE"/>
<path d="M606.976 456.293C607.952 457.27 607.952 458.852 606.976 459.829C606 460.805 604.417 460.805 603.44 459.829C602.464 458.852 602.464 457.27 603.44 456.293C604.417 455.317 606 455.317 606.976 456.293Z" fill="#FFDFDE"/>
<path d="M617.583 445.687C618.559 446.663 618.559 448.246 617.583 449.222C616.606 450.198 615.023 450.198 614.047 449.222C613.071 448.246 613.071 446.663 614.047 445.687C615.023 444.71 616.606 444.71 617.583 445.687Z" fill="#FFDFDE"/>
<path d="M628.189 435.08C629.165 436.056 629.165 437.639 628.189 438.616C627.213 439.592 625.63 439.592 624.654 438.616C623.677 437.639 623.677 436.056 624.654 435.08C625.63 434.104 627.213 434.104 628.189 435.08Z" fill="#FFDFDE"/>
<path d="M638.796 424.473C639.772 425.45 639.772 427.033 638.796 428.009C637.819 428.985 636.236 428.985 635.26 428.009C634.284 427.033 634.284 425.45 635.26 424.473C636.236 423.497 637.819 423.497 638.796 424.473Z" fill="#FFDFDE"/>
<path d="M649.402 413.867C650.379 414.843 650.379 416.426 649.402 417.402C648.426 418.379 646.843 418.379 645.867 417.402C644.89 416.426 644.89 414.843 645.867 413.867C646.843 412.89 648.426 412.89 649.402 413.867Z" fill="#FFDFDE"/>
<path d="M660.009 403.26C660.985 404.237 660.985 405.819 660.009 406.796C659.033 407.772 657.45 407.772 656.473 406.796C655.497 405.819 655.497 404.237 656.473 403.26C657.45 402.284 659.033 402.284 660.009 403.26Z" fill="#FFDFDE"/>
<path d="M670.616 392.654C671.592 393.63 671.592 395.213 670.616 396.189C669.639 397.165 668.056 397.165 667.08 396.189C666.104 395.213 666.104 393.63 667.08 392.654C668.056 391.677 669.639 391.677 670.616 392.654Z" fill="#FFDFDE"/>
<path d="M681.222 382.047C682.198 383.023 682.198 384.606 681.222 385.583C680.246 386.559 678.663 386.559 677.687 385.583C676.71 384.606 676.71 383.023 677.687 382.047C678.663 381.071 680.246 381.071 681.222 382.047Z" fill="#FFDFDE"/>
<path d="M691.829 371.44C692.805 372.417 692.805 374 691.829 374.976C690.852 375.952 689.27 375.952 688.293 374.976C687.317 374 687.317 372.417 688.293 371.44C689.27 370.464 690.852 370.464 691.829 371.44Z" fill="#FFDFDE"/>
<path d="M702.435 360.834C703.412 361.81 703.412 363.393 702.435 364.369C701.459 365.346 699.876 365.346 698.9 364.369C697.923 363.393 697.923 361.81 698.9 360.834C699.876 359.857 701.459 359.857 702.435 360.834Z" fill="#FFDFDE"/>
<path d="M606.976 477.506C607.952 478.483 607.952 480.066 606.976 481.042C606 482.018 604.417 482.018 603.44 481.042C602.464 480.066 602.464 478.483 603.44 477.506C604.417 476.53 606 476.53 606.976 477.506Z" fill="#FFDFDE"/>
<path d="M617.583 466.9C618.559 467.876 618.559 469.459 617.583 470.435C616.606 471.412 615.023 471.412 614.047 470.435C613.071 469.459 613.071 467.876 614.047 466.9C615.023 465.923 616.606 465.924 617.583 466.9Z" fill="#FFDFDE"/>
<path d="M628.189 456.293C629.165 457.27 629.165 458.852 628.189 459.829C627.213 460.805 625.63 460.805 624.654 459.829C623.677 458.852 623.677 457.27 624.654 456.293C625.63 455.317 627.213 455.317 628.189 456.293Z" fill="#FFDFDE"/>
<path d="M638.796 445.687C639.772 446.663 639.772 448.246 638.796 449.222C637.819 450.198 636.236 450.198 635.26 449.222C634.284 448.246 634.284 446.663 635.26 445.687C636.236 444.71 637.819 444.71 638.796 445.687Z" fill="#FFDFDE"/>
<path d="M649.402 435.08C650.379 436.056 650.379 437.639 649.402 438.616C648.426 439.592 646.843 439.592 645.867 438.616C644.89 437.639 644.89 436.056 645.867 435.08C646.843 434.104 648.426 434.104 649.402 435.08Z" fill="#FFDFDE"/>
<path d="M660.009 424.473C660.985 425.45 660.985 427.033 660.009 428.009C659.033 428.985 657.45 428.985 656.473 428.009C655.497 427.033 655.497 425.45 656.473 424.473C657.45 423.497 659.033 423.497 660.009 424.473Z" fill="#FFDFDE"/>
<path d="M670.616 413.867C671.592 414.843 671.592 416.426 670.616 417.402C669.639 418.379 668.056 418.379 667.08 417.402C666.104 416.426 666.104 414.843 667.08 413.867C668.056 412.89 669.639 412.89 670.616 413.867Z" fill="#FFDFDE"/>
<path d="M681.222 403.26C682.198 404.237 682.198 405.819 681.222 406.796C680.246 407.772 678.663 407.772 677.687 406.796C676.71 405.819 676.71 404.237 677.687 403.26C678.663 402.284 680.246 402.284 681.222 403.26Z" fill="#FFDFDE"/>
<path d="M691.829 392.654C692.805 393.63 692.805 395.213 691.829 396.189C690.852 397.165 689.27 397.165 688.293 396.189C687.317 395.213 687.317 393.63 688.293 392.654C689.27 391.677 690.852 391.677 691.829 392.654Z" fill="#FFDFDE"/>
<path d="M702.435 382.047C703.412 383.023 703.412 384.606 702.435 385.583C701.459 386.559 699.876 386.559 698.9 385.583C697.923 384.606 697.923 383.023 698.9 382.047C699.876 381.071 701.459 381.071 702.435 382.047Z" fill="#FFDFDE"/>
<path d="M713.042 371.44C714.018 372.417 714.018 374 713.042 374.976C712.066 375.952 710.483 375.952 709.506 374.976C708.53 374 708.53 372.417 709.506 371.44C710.483 370.464 712.066 370.464 713.042 371.44Z" fill="#FFDFDE"/>
<path d="M946.303 42.8338C947.28 43.8101 947.28 45.393 946.303 46.3693C945.327 47.3456 943.744 47.3456 942.768 46.3693C941.791 45.393 941.791 43.8101 942.768 42.8338C943.744 41.8575 945.327 41.8575 946.303 42.8338Z" fill="#FFDFDE"/>
<path d="M956.91 32.2272C957.886 33.2035 957.886 34.7864 956.91 35.7627C955.934 36.739 954.351 36.739 953.374 35.7627C952.398 34.7864 952.398 33.2035 953.374 32.2272C954.351 31.2509 955.934 31.2509 956.91 32.2272Z" fill="#FFDFDE"/>
<path d="M967.517 21.6206C968.493 22.5969 968.493 24.1798 967.517 25.1561C966.54 26.1324 964.957 26.1324 963.981 25.1561C963.005 24.1798 963.005 22.5969 963.981 21.6206C964.957 20.6443 966.54 20.6443 967.517 21.6206Z" fill="#FFDFDE"/>
<path d="M978.123 11.014C979.099 11.9903 979.099 13.5732 978.123 14.5495C977.147 15.5258 975.564 15.5258 974.588 14.5495C973.611 13.5732 973.611 11.9903 974.588 11.014C975.564 10.0377 977.147 10.0377 978.123 11.014Z" fill="#FFDFDE"/>
<path d="M988.73 0.407389C989.706 1.3837 989.706 2.96661 988.73 3.94292C987.753 4.91923 986.17 4.91923 985.194 3.94292C984.218 2.96661 984.218 1.3837 985.194 0.407389C986.17 -0.56892 987.753 -0.568921 988.73 0.407389Z" fill="#FFDFDE"/>
<path d="M999.336 -10.1992C1000.31 -9.2229 1000.31 -7.63999 999.336 -6.66368C998.36 -5.68737 996.777 -5.68737 995.801 -6.66368C994.824 -7.63999 994.824 -9.2229 995.801 -10.1992C996.777 -11.1755 998.36 -11.1755 999.336 -10.1992Z" fill="#FFDFDE"/>
<path d="M1009.94 -20.8058C1010.92 -19.8295 1010.92 -18.2466 1009.94 -17.2703C1008.97 -16.294 1007.38 -16.294 1006.41 -17.2703C1005.43 -18.2466 1005.43 -19.8295 1006.41 -20.8058C1007.38 -21.7821 1008.97 -21.7821 1009.94 -20.8058Z" fill="#FFDFDE"/>
<path d="M1020.55 -31.4124C1021.53 -30.4361 1021.53 -28.8532 1020.55 -27.8769C1019.57 -26.9006 1017.99 -26.9006 1017.01 -27.8769C1016.04 -28.8532 1016.04 -30.4361 1017.01 -31.4124C1017.99 -32.3887 1019.57 -32.3887 1020.55 -31.4124Z" fill="#FFDFDE"/>
<path d="M1031.16 -42.019C1032.13 -41.0427 1032.13 -39.4598 1031.16 -38.4835C1030.18 -37.5072 1028.6 -37.5072 1027.62 -38.4835C1026.64 -39.4598 1026.64 -41.0427 1027.62 -42.019C1028.6 -42.9953 1030.18 -42.9953 1031.16 -42.019Z" fill="#FFDFDE"/>
<path d="M1041.76 -52.6256C1042.74 -51.6493 1042.74 -50.0664 1041.76 -49.0901C1040.79 -48.1138 1039.2 -48.1138 1038.23 -49.0901C1037.25 -50.0664 1037.25 -51.6493 1038.23 -52.6256C1039.2 -53.6019 1040.79 -53.6019 1041.76 -52.6256Z" fill="#FFDFDE"/>
<path d="M1052.37 -63.2322C1053.35 -62.2559 1053.35 -60.673 1052.37 -59.6967C1051.39 -58.7204 1049.81 -58.7204 1048.83 -59.6967C1047.86 -60.673 1047.86 -62.2559 1048.83 -63.2322C1049.81 -64.2085 1051.39 -64.2085 1052.37 -63.2322Z" fill="#FFDFDE"/>
<path d="M956.91 53.4404C957.886 54.4167 957.886 55.9996 956.91 56.9759C955.934 57.9522 954.351 57.9522 953.374 56.9759C952.398 55.9996 952.398 54.4167 953.374 53.4404C954.351 52.4641 955.934 52.4641 956.91 53.4404Z" fill="#FFDFDE"/>
<path d="M967.517 42.8338C968.493 43.8101 968.493 45.393 967.517 46.3693C966.54 47.3456 964.957 47.3456 963.981 46.3693C963.005 45.393 963.005 43.8101 963.981 42.8338C964.957 41.8575 966.54 41.8575 967.517 42.8338Z" fill="#FFDFDE"/>
<path d="M978.123 32.2272C979.099 33.2035 979.099 34.7864 978.123 35.7627C977.147 36.739 975.564 36.739 974.588 35.7627C973.611 34.7864 973.611 33.2035 974.588 32.2272C975.564 31.2509 977.147 31.2509 978.123 32.2272Z" fill="#FFDFDE"/>
<path d="M988.73 21.6206C989.706 22.5969 989.706 24.1798 988.73 25.1561C987.753 26.1324 986.17 26.1324 985.194 25.1561C984.218 24.1798 984.218 22.5969 985.194 21.6206C986.17 20.6443 987.753 20.6443 988.73 21.6206Z" fill="#FFDFDE"/>
<path d="M999.336 11.014C1000.31 11.9903 1000.31 13.5732 999.336 14.5495C998.36 15.5258 996.777 15.5258 995.801 14.5495C994.824 13.5732 994.824 11.9903 995.801 11.014C996.777 10.0377 998.36 10.0377 999.336 11.014Z" fill="#FFDFDE"/>
<path d="M1009.94 0.407389C1010.92 1.3837 1010.92 2.96661 1009.94 3.94292C1008.97 4.91924 1007.38 4.91923 1006.41 3.94292C1005.43 2.96661 1005.43 1.3837 1006.41 0.407389C1007.38 -0.568923 1008.97 -0.568922 1009.94 0.407389Z" fill="#FFDFDE"/>
<path d="M1020.55 -10.1992C1021.53 -9.2229 1021.53 -7.63999 1020.55 -6.66368C1019.57 -5.68737 1017.99 -5.68737 1017.01 -6.66368C1016.04 -7.63999 1016.04 -9.2229 1017.01 -10.1992C1017.99 -11.1755 1019.57 -11.1755 1020.55 -10.1992Z" fill="#FFDFDE"/>
<path d="M1031.16 -20.8058C1032.13 -19.8295 1032.13 -18.2466 1031.16 -17.2703C1030.18 -16.294 1028.6 -16.294 1027.62 -17.2703C1026.64 -18.2466 1026.64 -19.8295 1027.62 -20.8058C1028.6 -21.7821 1030.18 -21.7821 1031.16 -20.8058Z" fill="#FFDFDE"/>
<path d="M1041.76 -31.4124C1042.74 -30.4361 1042.74 -28.8532 1041.76 -27.8769C1040.79 -26.9006 1039.2 -26.9006 1038.23 -27.8769C1037.25 -28.8532 1037.25 -30.4361 1038.23 -31.4124C1039.2 -32.3887 1040.79 -32.3887 1041.76 -31.4124Z" fill="#FFDFDE"/>
<path d="M1052.37 -42.019C1053.35 -41.0427 1053.35 -39.4598 1052.37 -38.4835C1051.39 -37.5072 1049.81 -37.5072 1048.83 -38.4835C1047.86 -39.4598 1047.86 -41.0427 1048.83 -42.019C1049.81 -42.9953 1051.39 -42.9953 1052.37 -42.019Z" fill="#FFDFDE"/>
<path d="M1062.98 -52.6256C1063.95 -51.6493 1063.95 -50.0664 1062.98 -49.0901C1062 -48.1138 1060.42 -48.1138 1059.44 -49.0901C1058.46 -50.0664 1058.46 -51.6493 1059.44 -52.6256C1060.42 -53.6019 1062 -53.6019 1062.98 -52.6256Z" fill="#FFDFDE"/>
<path d="M967.517 64.047C968.493 65.0233 968.493 66.6062 967.517 67.5825C966.54 68.5588 964.957 68.5588 963.981 67.5825C963.005 66.6062 963.005 65.0233 963.981 64.047C964.957 63.0707 966.54 63.0707 967.517 64.047Z" fill="#FFDFDE"/>
<path d="M978.123 53.4404C979.099 54.4167 979.099 55.9996 978.123 56.9759C977.147 57.9522 975.564 57.9522 974.588 56.9759C973.611 55.9996 973.611 54.4167 974.588 53.4404C975.564 52.4641 977.147 52.4641 978.123 53.4404Z" fill="#FFDFDE"/>
<path d="M988.73 42.8338C989.706 43.8101 989.706 45.393 988.73 46.3693C987.753 47.3456 986.17 47.3456 985.194 46.3693C984.218 45.393 984.218 43.8101 985.194 42.8338C986.17 41.8575 987.753 41.8575 988.73 42.8338Z" fill="#FFDFDE"/>
<path d="M999.336 32.2272C1000.31 33.2035 1000.31 34.7864 999.336 35.7627C998.36 36.739 996.777 36.739 995.801 35.7627C994.824 34.7864 994.824 33.2035 995.801 32.2272C996.777 31.2509 998.36 31.2509 999.336 32.2272Z" fill="#FFDFDE"/>
<path d="M1009.94 21.6206C1010.92 22.5969 1010.92 24.1798 1009.94 25.1561C1008.97 26.1324 1007.38 26.1324 1006.41 25.1561C1005.43 24.1798 1005.43 22.5969 1006.41 21.6206C1007.38 20.6443 1008.97 20.6443 1009.94 21.6206Z" fill="#FFDFDE"/>
<path d="M1020.55 11.014C1021.53 11.9903 1021.53 13.5732 1020.55 14.5495C1019.57 15.5258 1017.99 15.5258 1017.01 14.5495C1016.04 13.5732 1016.04 11.9903 1017.01 11.014C1017.99 10.0377 1019.57 10.0377 1020.55 11.014Z" fill="#FFDFDE"/>
<path d="M1031.16 0.407389C1032.13 1.3837 1032.13 2.96661 1031.16 3.94292C1030.18 4.91924 1028.6 4.91923 1027.62 3.94292C1026.64 2.96661 1026.64 1.3837 1027.62 0.407389C1028.6 -0.568923 1030.18 -0.568922 1031.16 0.407389Z" fill="#FFDFDE"/>
<path d="M1041.76 -10.1992C1042.74 -9.2229 1042.74 -7.63999 1041.76 -6.66368C1040.79 -5.68737 1039.2 -5.68737 1038.23 -6.66368C1037.25 -7.63999 1037.25 -9.2229 1038.23 -10.1992C1039.2 -11.1755 1040.79 -11.1755 1041.76 -10.1992Z" fill="#FFDFDE"/>
<path d="M1052.37 -20.8058C1053.35 -19.8295 1053.35 -18.2466 1052.37 -17.2703C1051.39 -16.294 1049.81 -16.294 1048.83 -17.2703C1047.86 -18.2466 1047.86 -19.8295 1048.83 -20.8058C1049.81 -21.7821 1051.39 -21.7821 1052.37 -20.8058Z" fill="#FFDFDE"/>
<path d="M1062.98 -31.4124C1063.95 -30.4361 1063.95 -28.8532 1062.98 -27.8769C1062 -26.9006 1060.42 -26.9006 1059.44 -27.8769C1058.46 -28.8532 1058.46 -30.4361 1059.44 -31.4124C1060.42 -32.3887 1062 -32.3887 1062.98 -31.4124Z" fill="#FFDFDE"/>
<path d="M1073.58 -42.019C1074.56 -41.0427 1074.56 -39.4598 1073.58 -38.4835C1072.61 -37.5072 1071.02 -37.5072 1070.05 -38.4835C1069.07 -39.4598 1069.07 -41.0427 1070.05 -42.019C1071.02 -42.9953 1072.61 -42.9953 1073.58 -42.019Z" fill="#FFDFDE"/>
<path d="M978.123 74.6536C979.099 75.6299 979.099 77.2128 978.123 78.1891C977.147 79.1654 975.564 79.1654 974.588 78.1891C973.611 77.2128 973.611 75.6299 974.588 74.6536C975.564 73.6773 977.147 73.6773 978.123 74.6536Z" fill="#FFDFDE"/>
<path d="M988.73 64.047C989.706 65.0233 989.706 66.6062 988.73 67.5825C987.753 68.5588 986.17 68.5588 985.194 67.5825C984.218 66.6062 984.218 65.0233 985.194 64.047C986.17 63.0707 987.753 63.0707 988.73 64.047Z" fill="#FFDFDE"/>
<path d="M999.336 53.4404C1000.31 54.4167 1000.31 55.9996 999.336 56.9759C998.36 57.9522 996.777 57.9522 995.801 56.9759C994.824 55.9996 994.824 54.4167 995.801 53.4404C996.777 52.4641 998.36 52.4641 999.336 53.4404Z" fill="#FFDFDE"/>
<path d="M1009.94 42.8338C1010.92 43.8101 1010.92 45.393 1009.94 46.3693C1008.97 47.3456 1007.38 47.3456 1006.41 46.3693C1005.43 45.393 1005.43 43.8101 1006.41 42.8338C1007.38 41.8575 1008.97 41.8575 1009.94 42.8338Z" fill="#FFDFDE"/>
<path d="M1020.55 32.2272C1021.53 33.2035 1021.53 34.7864 1020.55 35.7627C1019.57 36.739 1017.99 36.739 1017.01 35.7627C1016.04 34.7864 1016.04 33.2035 1017.01 32.2272C1017.99 31.2509 1019.57 31.2509 1020.55 32.2272Z" fill="#FFDFDE"/>
<path d="M1031.16 21.6206C1032.13 22.5969 1032.13 24.1798 1031.16 25.1561C1030.18 26.1324 1028.6 26.1324 1027.62 25.1561C1026.64 24.1798 1026.64 22.5969 1027.62 21.6206C1028.6 20.6443 1030.18 20.6443 1031.16 21.6206Z" fill="#FFDFDE"/>
<path d="M1041.76 11.014C1042.74 11.9903 1042.74 13.5732 1041.76 14.5495C1040.79 15.5258 1039.2 15.5258 1038.23 14.5495C1037.25 13.5732 1037.25 11.9903 1038.23 11.014C1039.2 10.0377 1040.79 10.0377 1041.76 11.014Z" fill="#FFDFDE"/>
<path d="M1052.37 0.407389C1053.35 1.3837 1053.35 2.96661 1052.37 3.94292C1051.39 4.91924 1049.81 4.91923 1048.83 3.94292C1047.86 2.96661 1047.86 1.3837 1048.83 0.407389C1049.81 -0.568923 1051.39 -0.56892 1052.37 0.407389Z" fill="#FFDFDE"/>
<path d="M1062.98 -10.1992C1063.95 -9.2229 1063.95 -7.63999 1062.98 -6.66368C1062 -5.68737 1060.42 -5.68737 1059.44 -6.66368C1058.46 -7.63999 1058.46 -9.2229 1059.44 -10.1992C1060.42 -11.1755 1062 -11.1755 1062.98 -10.1992Z" fill="#FFDFDE"/>
<path d="M1073.58 -20.8058C1074.56 -19.8295 1074.56 -18.2466 1073.58 -17.2703C1072.61 -16.294 1071.02 -16.294 1070.05 -17.2703C1069.07 -18.2466 1069.07 -19.8295 1070.05 -20.8058C1071.02 -21.7821 1072.61 -21.7821 1073.58 -20.8058Z" fill="#FFDFDE"/>
<path d="M1084.19 -31.4124C1085.17 -30.4361 1085.17 -28.8532 1084.19 -27.8769C1083.21 -26.9006 1081.63 -26.9006 1080.65 -27.8769C1079.68 -28.8532 1079.68 -30.4361 1080.65 -31.4124C1081.63 -32.3887 1083.21 -32.3887 1084.19 -31.4124Z" fill="#FFDFDE"/>
<path d="M988.73 85.2602C989.706 86.2365 989.706 87.8194 988.73 88.7957C987.753 89.772 986.17 89.772 985.194 88.7957C984.218 87.8194 984.218 86.2365 985.194 85.2602C986.17 84.2839 987.753 84.2839 988.73 85.2602Z" fill="#FFDFDE"/>
<path d="M999.336 74.6536C1000.31 75.6299 1000.31 77.2128 999.336 78.1891C998.36 79.1654 996.777 79.1654 995.801 78.1891C994.824 77.2128 994.824 75.6299 995.801 74.6536C996.777 73.6773 998.36 73.6773 999.336 74.6536Z" fill="#FFDFDE"/>
<path d="M1009.94 64.047C1010.92 65.0233 1010.92 66.6062 1009.94 67.5825C1008.97 68.5588 1007.38 68.5588 1006.41 67.5825C1005.43 66.6062 1005.43 65.0233 1006.41 64.047C1007.38 63.0707 1008.97 63.0707 1009.94 64.047Z" fill="#FFDFDE"/>
<path d="M1020.55 53.4404C1021.53 54.4167 1021.53 55.9996 1020.55 56.9759C1019.57 57.9522 1017.99 57.9522 1017.01 56.9759C1016.04 55.9996 1016.04 54.4167 1017.01 53.4404C1017.99 52.4641 1019.57 52.4641 1020.55 53.4404Z" fill="#FFDFDE"/>
<path d="M1031.16 42.8338C1032.13 43.8101 1032.13 45.393 1031.16 46.3693C1030.18 47.3456 1028.6 47.3456 1027.62 46.3693C1026.64 45.393 1026.64 43.8101 1027.62 42.8338C1028.6 41.8575 1030.18 41.8575 1031.16 42.8338Z" fill="#FFDFDE"/>
<path d="M1041.76 32.2272C1042.74 33.2035 1042.74 34.7864 1041.76 35.7627C1040.79 36.739 1039.2 36.739 1038.23 35.7627C1037.25 34.7864 1037.25 33.2035 1038.23 32.2272C1039.2 31.2509 1040.79 31.2509 1041.76 32.2272Z" fill="#FFDFDE"/>
<path d="M1052.37 21.6206C1053.35 22.5969 1053.35 24.1798 1052.37 25.1561C1051.39 26.1324 1049.81 26.1324 1048.83 25.1561C1047.86 24.1798 1047.86 22.5969 1048.83 21.6206C1049.81 20.6443 1051.39 20.6443 1052.37 21.6206Z" fill="#FFDFDE"/>
<path d="M1062.98 11.014C1063.95 11.9903 1063.95 13.5732 1062.98 14.5495C1062 15.5258 1060.42 15.5258 1059.44 14.5495C1058.46 13.5732 1058.46 11.9903 1059.44 11.014C1060.42 10.0377 1062 10.0377 1062.98 11.014Z" fill="#FFDFDE"/>
<path d="M1073.58 0.407389C1074.56 1.3837 1074.56 2.96661 1073.58 3.94292C1072.61 4.91924 1071.02 4.91923 1070.05 3.94292C1069.07 2.96661 1069.07 1.3837 1070.05 0.407389C1071.02 -0.568923 1072.61 -0.56892 1073.58 0.407389Z" fill="#FFDFDE"/>
<path d="M1084.19 -10.1992C1085.17 -9.2229 1085.17 -7.63999 1084.19 -6.66368C1083.21 -5.68737 1081.63 -5.68737 1080.65 -6.66368C1079.68 -7.63999 1079.68 -9.2229 1080.65 -10.1992C1081.63 -11.1755 1083.21 -11.1755 1084.19 -10.1992Z" fill="#FFDFDE"/>
<path d="M1094.8 -20.8058C1095.77 -19.8295 1095.77 -18.2466 1094.8 -17.2703C1093.82 -16.294 1092.24 -16.294 1091.26 -17.2703C1090.28 -18.2466 1090.28 -19.8295 1091.26 -20.8058C1092.24 -21.7821 1093.82 -21.7821 1094.8 -20.8058Z" fill="#FFDFDE"/>
<path d="M999.336 95.8668C1000.31 96.8431 1000.31 98.426 999.336 99.4023C998.36 100.379 996.777 100.379 995.801 99.4023C994.824 98.426 994.824 96.8431 995.801 95.8668C996.777 94.8905 998.36 94.8905 999.336 95.8668Z" fill="#FFDFDE"/>
<path d="M1009.94 85.2602C1010.92 86.2365 1010.92 87.8194 1009.94 88.7957C1008.97 89.772 1007.38 89.772 1006.41 88.7957C1005.43 87.8194 1005.43 86.2365 1006.41 85.2602C1007.38 84.2839 1008.97 84.2839 1009.94 85.2602Z" fill="#FFDFDE"/>
<path d="M1020.55 74.6536C1021.53 75.6299 1021.53 77.2128 1020.55 78.1891C1019.57 79.1654 1017.99 79.1654 1017.01 78.1891C1016.04 77.2128 1016.04 75.6299 1017.01 74.6536C1017.99 73.6773 1019.57 73.6773 1020.55 74.6536Z" fill="#FFDFDE"/>
<path d="M1031.16 64.047C1032.13 65.0233 1032.13 66.6062 1031.16 67.5825C1030.18 68.5588 1028.6 68.5588 1027.62 67.5825C1026.64 66.6062 1026.64 65.0233 1027.62 64.047C1028.6 63.0707 1030.18 63.0707 1031.16 64.047Z" fill="#FFDFDE"/>
<path d="M1041.76 53.4404C1042.74 54.4167 1042.74 55.9996 1041.76 56.9759C1040.79 57.9522 1039.2 57.9522 1038.23 56.9759C1037.25 55.9996 1037.25 54.4167 1038.23 53.4404C1039.2 52.4641 1040.79 52.4641 1041.76 53.4404Z" fill="#FFDFDE"/>
<path d="M1052.37 42.8338C1053.35 43.8101 1053.35 45.393 1052.37 46.3693C1051.39 47.3456 1049.81 47.3456 1048.83 46.3693C1047.86 45.393 1047.86 43.8101 1048.83 42.8338C1049.81 41.8575 1051.39 41.8575 1052.37 42.8338Z" fill="#FFDFDE"/>
<path d="M1062.98 32.2272C1063.95 33.2035 1063.95 34.7864 1062.98 35.7627C1062 36.739 1060.42 36.739 1059.44 35.7627C1058.46 34.7864 1058.46 33.2035 1059.44 32.2272C1060.42 31.2509 1062 31.2509 1062.98 32.2272Z" fill="#FFDFDE"/>
<path d="M1073.58 21.6206C1074.56 22.5969 1074.56 24.1798 1073.58 25.1561C1072.61 26.1324 1071.02 26.1324 1070.05 25.1561C1069.07 24.1798 1069.07 22.5969 1070.05 21.6206C1071.02 20.6443 1072.61 20.6443 1073.58 21.6206Z" fill="#FFDFDE"/>
<path d="M1084.19 11.014C1085.17 11.9903 1085.17 13.5732 1084.19 14.5495C1083.21 15.5258 1081.63 15.5258 1080.65 14.5495C1079.68 13.5732 1079.68 11.9903 1080.65 11.014C1081.63 10.0377 1083.21 10.0377 1084.19 11.014Z" fill="#FFDFDE"/>
<path d="M1094.8 0.407389C1095.77 1.3837 1095.77 2.96662 1094.8 3.94292C1093.82 4.91923 1092.24 4.91924 1091.26 3.94292C1090.28 2.96661 1090.28 1.3837 1091.26 0.407389C1092.24 -0.568918 1093.82 -0.568923 1094.8 0.407389Z" fill="#FFDFDE"/>
<path d="M1105.4 -10.1992C1106.38 -9.2229 1106.38 -7.63999 1105.4 -6.66368C1104.43 -5.68737 1102.84 -5.68737 1101.87 -6.66368C1100.89 -7.63999 1100.89 -9.2229 1101.87 -10.1992C1102.84 -11.1755 1104.43 -11.1755 1105.4 -10.1992Z" fill="#FFDFDE"/>
<path d="M1009.94 106.473C1010.92 107.45 1010.92 109.033 1009.94 110.009C1008.97 110.985 1007.38 110.985 1006.41 110.009C1005.43 109.033 1005.43 107.45 1006.41 106.473C1007.38 105.497 1008.97 105.497 1009.94 106.473Z" fill="#FFDFDE"/>
<path d="M1020.55 95.8668C1021.53 96.8431 1021.53 98.426 1020.55 99.4023C1019.57 100.379 1017.99 100.379 1017.01 99.4023C1016.04 98.426 1016.04 96.8431 1017.01 95.8668C1017.99 94.8905 1019.57 94.8905 1020.55 95.8668Z" fill="#FFDFDE"/>
<path d="M1031.16 85.2602C1032.13 86.2365 1032.13 87.8194 1031.16 88.7957C1030.18 89.772 1028.6 89.772 1027.62 88.7957C1026.64 87.8194 1026.64 86.2365 1027.62 85.2602C1028.6 84.2839 1030.18 84.2839 1031.16 85.2602Z" fill="#FFDFDE"/>
<path d="M1041.76 74.6536C1042.74 75.6299 1042.74 77.2128 1041.76 78.1891C1040.79 79.1654 1039.2 79.1654 1038.23 78.1891C1037.25 77.2128 1037.25 75.6299 1038.23 74.6536C1039.2 73.6773 1040.79 73.6773 1041.76 74.6536Z" fill="#FFDFDE"/>
<path d="M1052.37 64.047C1053.35 65.0233 1053.35 66.6062 1052.37 67.5825C1051.39 68.5588 1049.81 68.5588 1048.83 67.5825C1047.86 66.6062 1047.86 65.0233 1048.83 64.047C1049.81 63.0707 1051.39 63.0707 1052.37 64.047Z" fill="#FFDFDE"/>
<path d="M1062.98 53.4404C1063.95 54.4167 1063.95 55.9996 1062.98 56.9759C1062 57.9522 1060.42 57.9522 1059.44 56.9759C1058.46 55.9996 1058.46 54.4167 1059.44 53.4404C1060.42 52.4641 1062 52.4641 1062.98 53.4404Z" fill="#FFDFDE"/>
<path d="M1073.58 42.8338C1074.56 43.8101 1074.56 45.393 1073.58 46.3693C1072.61 47.3456 1071.02 47.3456 1070.05 46.3693C1069.07 45.393 1069.07 43.8101 1070.05 42.8338C1071.02 41.8575 1072.61 41.8575 1073.58 42.8338Z" fill="#FFDFDE"/>
<path d="M1084.19 32.2272C1085.17 33.2035 1085.17 34.7864 1084.19 35.7627C1083.21 36.739 1081.63 36.739 1080.65 35.7627C1079.68 34.7864 1079.68 33.2035 1080.65 32.2272C1081.63 31.2509 1083.21 31.2509 1084.19 32.2272Z" fill="#FFDFDE"/>
<path d="M1094.8 21.6206C1095.77 22.5969 1095.77 24.1798 1094.8 25.1561C1093.82 26.1324 1092.24 26.1324 1091.26 25.1561C1090.28 24.1798 1090.28 22.5969 1091.26 21.6206C1092.24 20.6443 1093.82 20.6443 1094.8 21.6206Z" fill="#FFDFDE"/>
<path d="M1105.4 11.014C1106.38 11.9903 1106.38 13.5732 1105.4 14.5495C1104.43 15.5258 1102.84 15.5258 1101.87 14.5495C1100.89 13.5732 1100.89 11.9903 1101.87 11.014C1102.84 10.0377 1104.43 10.0377 1105.4 11.014Z" fill="#FFDFDE"/>
<path d="M1116.01 0.407389C1116.99 1.3837 1116.99 2.96662 1116.01 3.94292C1115.03 4.91923 1113.45 4.91924 1112.47 3.94292C1111.5 2.96661 1111.5 1.3837 1112.47 0.407389C1113.45 -0.568918 1115.03 -0.568923 1116.01 0.407389Z" fill="#FFDFDE"/>
<path d="M1020.55 117.08C1021.53 118.056 1021.53 119.639 1020.55 120.616C1019.57 121.592 1017.99 121.592 1017.01 120.616C1016.04 119.639 1016.04 118.056 1017.01 117.08C1017.99 116.104 1019.57 116.104 1020.55 117.08Z" fill="#FFDFDE"/>
<path d="M1031.16 106.473C1032.13 107.45 1032.13 109.033 1031.16 110.009C1030.18 110.985 1028.6 110.985 1027.62 110.009C1026.64 109.033 1026.64 107.45 1027.62 106.473C1028.6 105.497 1030.18 105.497 1031.16 106.473Z" fill="#FFDFDE"/>
<path d="M1041.76 95.8668C1042.74 96.8431 1042.74 98.426 1041.76 99.4023C1040.79 100.379 1039.2 100.379 1038.23 99.4023C1037.25 98.426 1037.25 96.8431 1038.23 95.8668C1039.2 94.8905 1040.79 94.8905 1041.76 95.8668Z" fill="#FFDFDE"/>
<path d="M1052.37 85.2602C1053.35 86.2365 1053.35 87.8194 1052.37 88.7957C1051.39 89.772 1049.81 89.772 1048.83 88.7957C1047.86 87.8194 1047.86 86.2365 1048.83 85.2602C1049.81 84.2839 1051.39 84.2839 1052.37 85.2602Z" fill="#FFDFDE"/>
<path d="M1062.98 74.6536C1063.95 75.6299 1063.95 77.2128 1062.98 78.1891C1062 79.1654 1060.42 79.1654 1059.44 78.1891C1058.46 77.2128 1058.46 75.6299 1059.44 74.6536C1060.42 73.6773 1062 73.6773 1062.98 74.6536Z" fill="#FFDFDE"/>
<path d="M1073.58 64.047C1074.56 65.0233 1074.56 66.6062 1073.58 67.5825C1072.61 68.5588 1071.02 68.5588 1070.05 67.5825C1069.07 66.6062 1069.07 65.0233 1070.05 64.047C1071.02 63.0707 1072.61 63.0707 1073.58 64.047Z" fill="#FFDFDE"/>
<path d="M1084.19 53.4404C1085.17 54.4167 1085.17 55.9996 1084.19 56.9759C1083.21 57.9522 1081.63 57.9522 1080.65 56.9759C1079.68 55.9996 1079.68 54.4167 1080.65 53.4404C1081.63 52.4641 1083.21 52.4641 1084.19 53.4404Z" fill="#FFDFDE"/>
<path d="M1094.8 42.8338C1095.77 43.8101 1095.77 45.393 1094.8 46.3693C1093.82 47.3456 1092.24 47.3456 1091.26 46.3693C1090.28 45.393 1090.28 43.8101 1091.26 42.8338C1092.24 41.8575 1093.82 41.8575 1094.8 42.8338Z" fill="#FFDFDE"/>
<path d="M1105.4 32.2272C1106.38 33.2035 1106.38 34.7864 1105.4 35.7627C1104.43 36.739 1102.84 36.739 1101.87 35.7627C1100.89 34.7864 1100.89 33.2035 1101.87 32.2272C1102.84 31.2509 1104.43 31.2509 1105.4 32.2272Z" fill="#FFDFDE"/>
<path d="M1116.01 21.6206C1116.99 22.5969 1116.99 24.1798 1116.01 25.1561C1115.03 26.1324 1113.45 26.1324 1112.47 25.1561C1111.5 24.1798 1111.5 22.5969 1112.47 21.6206C1113.45 20.6443 1115.03 20.6443 1116.01 21.6206Z" fill="#FFDFDE"/>
<path d="M1126.62 11.014C1127.59 11.9903 1127.59 13.5732 1126.62 14.5495C1125.64 15.5258 1124.06 15.5258 1123.08 14.5495C1122.1 13.5732 1122.1 11.9903 1123.08 11.014C1124.06 10.0377 1125.64 10.0377 1126.62 11.014Z" fill="#FFDFDE"/>
<path d="M1031.16 127.687C1032.13 128.663 1032.13 130.246 1031.16 131.222C1030.18 132.198 1028.6 132.198 1027.62 131.222C1026.64 130.246 1026.64 128.663 1027.62 127.687C1028.6 126.71 1030.18 126.71 1031.16 127.687Z" fill="#FFDFDE"/>
<path d="M1041.76 117.08C1042.74 118.056 1042.74 119.639 1041.76 120.616C1040.79 121.592 1039.2 121.592 1038.23 120.616C1037.25 119.639 1037.25 118.056 1038.23 117.08C1039.2 116.104 1040.79 116.104 1041.76 117.08Z" fill="#FFDFDE"/>
<path d="M1052.37 106.473C1053.35 107.45 1053.35 109.033 1052.37 110.009C1051.39 110.985 1049.81 110.985 1048.83 110.009C1047.86 109.033 1047.86 107.45 1048.83 106.473C1049.81 105.497 1051.39 105.497 1052.37 106.473Z" fill="#FFDFDE"/>
<path d="M1062.98 95.8668C1063.95 96.8431 1063.95 98.426 1062.98 99.4023C1062 100.379 1060.42 100.379 1059.44 99.4023C1058.46 98.426 1058.46 96.8431 1059.44 95.8668C1060.42 94.8905 1062 94.8905 1062.98 95.8668Z" fill="#FFDFDE"/>
<path d="M1073.58 85.2602C1074.56 86.2365 1074.56 87.8194 1073.58 88.7957C1072.61 89.772 1071.02 89.772 1070.05 88.7957C1069.07 87.8194 1069.07 86.2365 1070.05 85.2602C1071.02 84.2839 1072.61 84.2839 1073.58 85.2602Z" fill="#FFDFDE"/>
<path d="M1084.19 74.6536C1085.17 75.6299 1085.17 77.2128 1084.19 78.1891C1083.21 79.1654 1081.63 79.1654 1080.65 78.1891C1079.68 77.2128 1079.68 75.6299 1080.65 74.6536C1081.63 73.6773 1083.21 73.6773 1084.19 74.6536Z" fill="#FFDFDE"/>
<path d="M1094.8 64.047C1095.77 65.0233 1095.77 66.6062 1094.8 67.5825C1093.82 68.5588 1092.24 68.5588 1091.26 67.5825C1090.28 66.6062 1090.28 65.0233 1091.26 64.047C1092.24 63.0707 1093.82 63.0707 1094.8 64.047Z" fill="#FFDFDE"/>
<path d="M1105.4 53.4404C1106.38 54.4167 1106.38 55.9996 1105.4 56.9759C1104.43 57.9522 1102.84 57.9522 1101.87 56.9759C1100.89 55.9996 1100.89 54.4167 1101.87 53.4404C1102.84 52.4641 1104.43 52.4641 1105.4 53.4404Z" fill="#FFDFDE"/>
<path d="M1116.01 42.8338C1116.99 43.8101 1116.99 45.393 1116.01 46.3693C1115.03 47.3456 1113.45 47.3456 1112.47 46.3693C1111.5 45.393 1111.5 43.8101 1112.47 42.8338C1113.45 41.8575 1115.03 41.8575 1116.01 42.8338Z" fill="#FFDFDE"/>
<path d="M1126.62 32.2272C1127.59 33.2035 1127.59 34.7864 1126.62 35.7627C1125.64 36.739 1124.06 36.739 1123.08 35.7627C1122.1 34.7864 1122.1 33.2035 1123.08 32.2272C1124.06 31.2509 1125.64 31.2509 1126.62 32.2272Z" fill="#FFDFDE"/>
<path d="M1137.22 21.6206C1138.2 22.5969 1138.2 24.1798 1137.22 25.1561C1136.25 26.1324 1134.66 26.1324 1133.69 25.1561C1132.71 24.1798 1132.71 22.5969 1133.69 21.6206C1134.66 20.6443 1136.25 20.6443 1137.22 21.6206Z" fill="#FFDFDE"/>
<path d="M1041.76 138.293C1042.74 139.27 1042.74 140.852 1041.76 141.829C1040.79 142.805 1039.2 142.805 1038.23 141.829C1037.25 140.852 1037.25 139.27 1038.23 138.293C1039.2 137.317 1040.79 137.317 1041.76 138.293Z" fill="#FFDFDE"/>
<path d="M1052.37 127.687C1053.35 128.663 1053.35 130.246 1052.37 131.222C1051.39 132.198 1049.81 132.198 1048.83 131.222C1047.86 130.246 1047.86 128.663 1048.83 127.687C1049.81 126.71 1051.39 126.71 1052.37 127.687Z" fill="#FFDFDE"/>
<path d="M1062.98 117.08C1063.95 118.056 1063.95 119.639 1062.98 120.616C1062 121.592 1060.42 121.592 1059.44 120.616C1058.46 119.639 1058.46 118.056 1059.44 117.08C1060.42 116.104 1062 116.104 1062.98 117.08Z" fill="#FFDFDE"/>
<path d="M1073.58 106.473C1074.56 107.45 1074.56 109.033 1073.58 110.009C1072.61 110.985 1071.02 110.985 1070.05 110.009C1069.07 109.033 1069.07 107.45 1070.05 106.473C1071.02 105.497 1072.61 105.497 1073.58 106.473Z" fill="#FFDFDE"/>
<path d="M1084.19 95.8668C1085.17 96.8431 1085.17 98.426 1084.19 99.4023C1083.21 100.379 1081.63 100.379 1080.65 99.4023C1079.68 98.426 1079.68 96.8431 1080.65 95.8668C1081.63 94.8905 1083.21 94.8905 1084.19 95.8668Z" fill="#FFDFDE"/>
<path d="M1094.8 85.2602C1095.77 86.2365 1095.77 87.8194 1094.8 88.7957C1093.82 89.772 1092.24 89.772 1091.26 88.7957C1090.28 87.8194 1090.28 86.2365 1091.26 85.2602C1092.24 84.2839 1093.82 84.2839 1094.8 85.2602Z" fill="#FFDFDE"/>
<path d="M1105.4 74.6536C1106.38 75.6299 1106.38 77.2128 1105.4 78.1891C1104.43 79.1654 1102.84 79.1654 1101.87 78.1891C1100.89 77.2128 1100.89 75.6299 1101.87 74.6536C1102.84 73.6773 1104.43 73.6773 1105.4 74.6536Z" fill="#FFDFDE"/>
<path d="M1116.01 64.047C1116.99 65.0233 1116.99 66.6062 1116.01 67.5825C1115.03 68.5588 1113.45 68.5588 1112.47 67.5825C1111.5 66.6062 1111.5 65.0233 1112.47 64.047C1113.45 63.0707 1115.03 63.0707 1116.01 64.047Z" fill="#FFDFDE"/>
<path d="M1126.62 53.4404C1127.59 54.4167 1127.59 55.9996 1126.62 56.9759C1125.64 57.9522 1124.06 57.9522 1123.08 56.9759C1122.1 55.9996 1122.1 54.4167 1123.08 53.4404C1124.06 52.4641 1125.64 52.4641 1126.62 53.4404Z" fill="#FFDFDE"/>
<path d="M1137.22 42.8338C1138.2 43.8101 1138.2 45.393 1137.22 46.3693C1136.25 47.3456 1134.66 47.3456 1133.69 46.3693C1132.71 45.393 1132.71 43.8101 1133.69 42.8338C1134.66 41.8575 1136.25 41.8575 1137.22 42.8338Z" fill="#FFDFDE"/>
<path d="M1147.83 32.2272C1148.81 33.2035 1148.81 34.7864 1147.83 35.7627C1146.85 36.739 1145.27 36.739 1144.29 35.7627C1143.32 34.7864 1143.32 33.2035 1144.29 32.2272C1145.27 31.2509 1146.85 31.2509 1147.83 32.2272Z" fill="#FFDFDE"/>
<path d="M1052.37 148.9C1053.35 149.876 1053.35 151.459 1052.37 152.435C1051.39 153.412 1049.81 153.412 1048.83 152.435C1047.86 151.459 1047.86 149.876 1048.83 148.9C1049.81 147.924 1051.39 147.924 1052.37 148.9Z" fill="#FFDFDE"/>
<path d="M1062.98 138.293C1063.95 139.27 1063.95 140.852 1062.98 141.829C1062 142.805 1060.42 142.805 1059.44 141.829C1058.46 140.852 1058.46 139.27 1059.44 138.293C1060.42 137.317 1062 137.317 1062.98 138.293Z" fill="#FFDFDE"/>
<path d="M1073.58 127.687C1074.56 128.663 1074.56 130.246 1073.58 131.222C1072.61 132.198 1071.02 132.198 1070.05 131.222C1069.07 130.246 1069.07 128.663 1070.05 127.687C1071.02 126.71 1072.61 126.71 1073.58 127.687Z" fill="#FFDFDE"/>
<path d="M1084.19 117.08C1085.17 118.056 1085.17 119.639 1084.19 120.616C1083.21 121.592 1081.63 121.592 1080.65 120.616C1079.68 119.639 1079.68 118.056 1080.65 117.08C1081.63 116.104 1083.21 116.104 1084.19 117.08Z" fill="#FFDFDE"/>
<path d="M1094.8 106.473C1095.77 107.45 1095.77 109.033 1094.8 110.009C1093.82 110.985 1092.24 110.985 1091.26 110.009C1090.28 109.033 1090.28 107.45 1091.26 106.473C1092.24 105.497 1093.82 105.497 1094.8 106.473Z" fill="#FFDFDE"/>
<path d="M1105.4 95.8668C1106.38 96.8431 1106.38 98.426 1105.4 99.4023C1104.43 100.379 1102.84 100.379 1101.87 99.4023C1100.89 98.426 1100.89 96.8431 1101.87 95.8668C1102.84 94.8905 1104.43 94.8905 1105.4 95.8668Z" fill="#FFDFDE"/>
<path d="M1116.01 85.2602C1116.99 86.2365 1116.99 87.8194 1116.01 88.7957C1115.03 89.772 1113.45 89.772 1112.47 88.7957C1111.5 87.8194 1111.5 86.2365 1112.47 85.2602C1113.45 84.2839 1115.03 84.2839 1116.01 85.2602Z" fill="#FFDFDE"/>
<path d="M1126.62 74.6536C1127.59 75.6299 1127.59 77.2128 1126.62 78.1891C1125.64 79.1654 1124.06 79.1654 1123.08 78.1891C1122.1 77.2128 1122.1 75.6299 1123.08 74.6536C1124.06 73.6773 1125.64 73.6773 1126.62 74.6536Z" fill="#FFDFDE"/>
<path d="M1137.22 64.047C1138.2 65.0233 1138.2 66.6062 1137.22 67.5825C1136.25 68.5588 1134.66 68.5588 1133.69 67.5825C1132.71 66.6062 1132.71 65.0233 1133.69 64.047C1134.66 63.0707 1136.25 63.0707 1137.22 64.047Z" fill="#FFDFDE"/>
<path d="M1147.83 53.4404C1148.81 54.4167 1148.81 55.9996 1147.83 56.9759C1146.85 57.9522 1145.27 57.9522 1144.29 56.9759C1143.32 55.9996 1143.32 54.4167 1144.29 53.4404C1145.27 52.4641 1146.85 52.4641 1147.83 53.4404Z" fill="#FFDFDE"/>
<path d="M1158.44 42.8338C1159.41 43.8101 1159.41 45.393 1158.44 46.3693C1157.46 47.3456 1155.88 47.3456 1154.9 46.3693C1153.92 45.393 1153.92 43.8101 1154.9 42.8338C1155.88 41.8575 1157.46 41.8575 1158.44 42.8338Z" fill="#FFDFDE"/>
<path d="M1062.98 159.506C1063.95 160.483 1063.95 162.066 1062.98 163.042C1062 164.018 1060.42 164.018 1059.44 163.042C1058.46 162.066 1058.46 160.483 1059.44 159.506C1060.42 158.53 1062 158.53 1062.98 159.506Z" fill="#FFDFDE"/>
<path d="M1073.58 148.9C1074.56 149.876 1074.56 151.459 1073.58 152.435C1072.61 153.412 1071.02 153.412 1070.05 152.435C1069.07 151.459 1069.07 149.876 1070.05 148.9C1071.02 147.923 1072.61 147.924 1073.58 148.9Z" fill="#FFDFDE"/>
<path d="M1084.19 138.293C1085.17 139.27 1085.17 140.852 1084.19 141.829C1083.21 142.805 1081.63 142.805 1080.65 141.829C1079.68 140.852 1079.68 139.27 1080.65 138.293C1081.63 137.317 1083.21 137.317 1084.19 138.293Z" fill="#FFDFDE"/>
<path d="M1094.8 127.687C1095.77 128.663 1095.77 130.246 1094.8 131.222C1093.82 132.198 1092.24 132.198 1091.26 131.222C1090.28 130.246 1090.28 128.663 1091.26 127.687C1092.24 126.71 1093.82 126.71 1094.8 127.687Z" fill="#FFDFDE"/>
<path d="M1105.4 117.08C1106.38 118.056 1106.38 119.639 1105.4 120.616C1104.43 121.592 1102.84 121.592 1101.87 120.616C1100.89 119.639 1100.89 118.056 1101.87 117.08C1102.84 116.104 1104.43 116.104 1105.4 117.08Z" fill="#FFDFDE"/>
<path d="M1116.01 106.473C1116.99 107.45 1116.99 109.033 1116.01 110.009C1115.03 110.985 1113.45 110.985 1112.47 110.009C1111.5 109.033 1111.5 107.45 1112.47 106.473C1113.45 105.497 1115.03 105.497 1116.01 106.473Z" fill="#FFDFDE"/>
<path d="M1126.62 95.8668C1127.59 96.8431 1127.59 98.426 1126.62 99.4023C1125.64 100.379 1124.06 100.379 1123.08 99.4023C1122.1 98.426 1122.1 96.8431 1123.08 95.8668C1124.06 94.8905 1125.64 94.8905 1126.62 95.8668Z" fill="#FFDFDE"/>
<path d="M1137.22 85.2602C1138.2 86.2365 1138.2 87.8194 1137.22 88.7957C1136.25 89.772 1134.66 89.772 1133.69 88.7957C1132.71 87.8194 1132.71 86.2365 1133.69 85.2602C1134.66 84.2839 1136.25 84.2839 1137.22 85.2602Z" fill="#FFDFDE"/>
<path d="M1147.83 74.6536C1148.81 75.6299 1148.81 77.2128 1147.83 78.1891C1146.85 79.1654 1145.27 79.1654 1144.29 78.1891C1143.32 77.2128 1143.32 75.6299 1144.29 74.6536C1145.27 73.6773 1146.85 73.6773 1147.83 74.6536Z" fill="#FFDFDE"/>
<path d="M1158.44 64.047C1159.41 65.0233 1159.41 66.6062 1158.44 67.5825C1157.46 68.5588 1155.88 68.5588 1154.9 67.5825C1153.92 66.6062 1153.92 65.0233 1154.9 64.047C1155.88 63.0707 1157.46 63.0707 1158.44 64.047Z" fill="#FFDFDE"/>
<path d="M1169.04 53.4404C1170.02 54.4167 1170.02 55.9996 1169.04 56.9759C1168.07 57.9522 1166.48 57.9522 1165.51 56.9759C1164.53 55.9996 1164.53 54.4167 1165.51 53.4404C1166.48 52.4641 1168.07 52.4641 1169.04 53.4404Z" fill="#FFDFDE"/>
<path fill-rule="evenodd" clip-rule="evenodd" d="M68.6036 690.142L106.746 724.746C106.634 724.87 106.522 724.994 106.412 725.118C87.6542 746.193 89.3429 778.493 110.285 797.492C131.227 816.491 163.538 815.036 182.693 794.322C182.806 794.2 182.919 794.077 183.031 793.953L182.66 793.617L144.888 759.35C163.999 738.284 162.415 705.715 141.35 686.604C120.284 667.493 87.7146 669.077 68.6036 690.142ZM110.621 797.122C131.358 815.935 163.353 814.496 182.323 793.986L182.321 793.984L182.195 793.87L182.068 793.755L181.94 793.639L181.812 793.522L181.683 793.405L181.553 793.287L181.422 793.169L181.291 793.05L181.159 792.93L181.026 792.809L180.892 792.688L180.758 792.566L180.623 792.443L180.487 792.32L180.35 792.196L180.213 792.072L180.075 791.947L179.937 791.821L179.797 791.695L179.657 791.568L179.517 791.44L179.375 791.312L179.233 791.183L179.09 791.053L178.947 790.923L178.803 790.793L178.658 790.661L178.513 790.529L178.367 790.397L178.22 790.264L178.073 790.13L177.924 789.996L177.776 789.861L177.627 789.725L177.477 789.589L177.326 789.453L177.175 789.316L177.023 789.178L176.871 789.04L176.718 788.901L176.564 788.761L176.41 788.621L176.255 788.481L176.099 788.34L175.943 788.198L175.787 788.056L175.629 787.914L175.472 787.77L175.313 787.627L175.154 787.482L174.995 787.338L174.835 787.192L174.674 787.047L174.513 786.9L174.351 786.754L174.189 786.606L174.026 786.459L173.862 786.31L173.698 786.162L173.534 786.012L173.369 785.863L173.203 785.713L173.037 785.562L172.871 785.411L172.704 785.259L172.536 785.107L172.368 784.955L172.199 784.802L172.03 784.648L171.861 784.494L171.69 784.34L171.52 784.185L171.349 784.03L171.177 783.874L171.005 783.718L170.833 783.562L170.66 783.405L170.486 783.248L170.313 783.09L170.138 782.932L169.963 782.773L169.788 782.614L169.613 782.455L169.436 782.295L169.26 782.135L169.083 781.974L168.906 781.814L168.728 781.652L168.549 781.491L168.371 781.328L168.192 781.166L168.012 781.003L167.832 780.84L167.652 780.676L167.472 780.513L167.29 780.348L167.109 780.184L166.927 780.019L166.745 779.853L166.562 779.688L166.38 779.522L166.196 779.356L166.013 779.189L165.829 779.022L165.644 778.855L165.459 778.687L165.274 778.519L165.089 778.351L164.903 778.183L164.717 778.014L164.531 777.845L164.344 777.675L164.157 777.505L163.969 777.335L163.782 777.165L163.594 776.995L163.405 776.824L163.217 776.653L163.028 776.481L162.839 776.31L162.649 776.138L162.459 775.965L162.269 775.793L162.079 775.62L161.888 775.447L161.697 775.274L161.506 775.101L161.315 774.927L161.123 774.753L160.931 774.579L160.739 774.405L160.547 774.23L160.354 774.055L160.161 773.88L159.968 773.705L159.774 773.53L159.581 773.354L159.387 773.178L159.193 773.002L158.999 772.826L158.804 772.649L158.61 772.473L158.415 772.296L158.22 772.119L158.024 771.942L157.829 771.765L157.633 771.587L157.437 771.409L157.241 771.232L157.045 771.054L156.849 770.875L156.652 770.697L156.456 770.519L156.259 770.34L156.062 770.161L155.865 769.983L155.667 769.804L155.47 769.624L155.272 769.445L155.075 769.266L154.877 769.086L154.679 768.907L154.481 768.727L154.283 768.547L154.084 768.367L153.886 768.187L153.687 768.007L153.489 767.827L153.29 767.647L153.091 767.466L152.892 767.286L152.693 767.105L152.494 766.925L152.295 766.744L152.096 766.563L151.896 766.382L151.697 766.201L151.497 766.021L151.298 765.84L151.098 765.659L150.899 765.477L150.699 765.296L150.499 765.115L150.3 764.934L150.1 764.753L149.9 764.571L149.7 764.39L149.5 764.209L149.301 764.027L149.101 763.846L148.901 763.665L148.701 763.483L148.501 763.302L148.301 763.121L148.101 762.939L147.901 762.758L147.701 762.577L147.502 762.395L147.302 762.214L147.102 762.033L146.902 761.852L146.702 761.67L146.503 761.489L146.303 761.308L146.103 761.127L145.904 760.946L145.704 760.765L145.505 760.584L145.305 760.403L145.106 760.222L144.907 760.041L144.708 759.861L144.508 759.68L144.309 759.499L144.11 759.319L143.912 759.138L143.713 758.958L143.514 758.778L143.316 758.598L143.117 758.418L142.919 758.238L142.72 758.058L142.522 757.878L142.324 757.699L142.126 757.519L141.929 757.34L141.731 757.16L141.534 756.981L141.336 756.802L141.139 756.623L140.942 756.444L140.745 756.266L140.548 756.087L140.352 755.909L140.155 755.731L139.959 755.553L139.763 755.375L139.567 755.197L139.372 755.02L139.176 754.842L138.981 754.665L138.786 754.488L138.591 754.311L138.396 754.135L138.201 753.958L138.007 753.782L137.813 753.606L137.619 753.43L137.425 753.254L137.232 753.078L137.039 752.903L136.846 752.728L136.653 752.553L136.46 752.379L136.268 752.204L136.076 752.03L135.884 751.856L135.693 751.682L135.502 751.509L135.311 751.335L135.12 751.162L134.929 750.99L134.739 750.817L134.549 750.645L134.36 750.473L134.17 750.301L133.981 750.13L133.793 749.958L133.604 749.788L133.416 749.617L133.228 749.446L133.041 749.276L132.854 749.107L132.667 748.937L132.48 748.768L132.294 748.599L132.108 748.43L131.923 748.262L131.738 748.094L131.553 747.926L131.368 747.759L131.184 747.592L131 747.425L130.817 747.259L130.634 747.093L130.451 746.927L130.269 746.762L130.087 746.596L129.905 746.432L129.724 746.267L129.543 746.103L129.363 745.94L129.183 745.776L129.003 745.614L128.824 745.451L128.645 745.289L128.467 745.127L128.289 744.965L128.112 744.804L127.935 744.644L127.758 744.483L127.582 744.324L127.406 744.164L127.23 744.005L127.056 743.846L126.881 743.688L126.707 743.53L126.533 743.373L126.36 743.216L126.188 743.059L126.016 742.903L125.844 742.747L125.673 742.592L125.502 742.437L125.332 742.282L125.162 742.128L124.993 741.975L124.824 741.822L124.656 741.669L124.488 741.517L124.321 741.365L124.154 741.214L123.988 741.063L123.822 740.913L123.657 740.763L123.492 740.613L123.328 740.465L123.164 740.316L123.001 740.168L122.839 740.021L122.677 739.874L122.515 739.727L122.355 739.582L122.194 739.436L122.035 739.291L121.875 739.147L121.717 739.003L121.559 738.86L121.401 738.717L121.245 738.575L121.088 738.433L120.933 738.292L120.778 738.151L120.623 738.011L120.469 737.871L120.316 737.732L120.164 737.594L120.011 737.456L119.86 737.318L119.709 737.182L119.559 737.046L119.41 736.91L119.261 736.775L119.113 736.64L118.965 736.506L118.818 736.373L118.672 736.24L118.526 736.108L118.381 735.977L118.237 735.846L118.093 735.716L117.95 735.586L117.808 735.457L117.666 735.328L117.526 735.2L117.385 735.073L117.246 734.947L117.107 734.821L116.969 734.695L116.831 734.571L116.695 734.447L116.559 734.323L116.423 734.201L116.289 734.078L116.155 733.957L116.022 733.836L115.889 733.716L115.758 733.597L115.627 733.478L115.497 733.36L115.367 733.242L115.239 733.126L115.111 733.01L114.983 732.894L114.857 732.78L114.731 732.666L114.607 732.552L114.483 732.44L114.359 732.328L114.237 732.217L114.115 732.106L113.994 731.997L113.874 731.888L113.755 731.779L113.636 731.672L113.518 731.565L113.401 731.459L113.285 731.354L113.17 731.249L113.056 731.145L112.942 731.042L112.829 730.94L112.717 730.838L112.606 730.738L112.496 730.638L112.387 730.538L112.278 730.44L112.17 730.342L112.063 730.245L111.958 730.149L111.852 730.054L111.748 729.959L111.645 729.865L111.542 729.772L111.441 729.68L111.34 729.589L111.24 729.498L111.141 729.409L111.043 729.32L110.946 729.232L110.85 729.144L110.755 729.058L110.66 728.972L110.567 728.887L110.474 728.803L110.383 728.72L110.292 728.638L110.202 728.557L110.113 728.476L110.026 728.396L109.939 728.318L109.853 728.24L109.768 728.163L109.684 728.086L109.601 728.011L109.519 727.936L109.437 727.863L109.357 727.79L109.278 727.718L109.2 727.647L109.123 727.577L109.046 727.508L108.971 727.44L108.897 727.373L108.824 727.306L108.752 727.241L108.68 727.176L108.61 727.112L108.541 727.05L108.473 726.988L108.406 726.927L108.34 726.867L108.275 726.808L108.211 726.75L108.148 726.693L108.086 726.637L108.025 726.582L107.965 726.527L107.907 726.474L107.849 726.422L107.792 726.37L107.737 726.32L107.682 726.271L107.629 726.222L107.577 726.175L107.526 726.128L107.475 726.083L107.426 726.038L107.378 725.995L107.332 725.952L107.286 725.911L107.241 725.871L107.198 725.831L107.156 725.793L107.114 725.755L107.074 725.719L107.035 725.684L106.997 725.649L106.961 725.616L106.925 725.584L106.891 725.553L106.858 725.522L106.825 725.493L106.795 725.465L106.782 725.454C88.2101 746.325 89.8834 778.308 110.621 797.122Z" fill="#FFDFDE"/>
<mask id="mask0_290_212" style="mask-type:alpha" maskUnits="userSpaceOnUse" x="0" y="0" width="1651" height="854">
<path d="M0 0H1651C1651 471.651 1268.65 854 797 854H0V0Z" fill="#FF7C6B" fill-opacity="0.1"/>
</mask>
<g mask="url(#mask0_290_212)">
<path fill-rule="evenodd" clip-rule="evenodd" d="M1140 708.798C1098.28 708.798 1064.45 742.691 1064.45 784.5C1064.45 826.309 1098.28 860.202 1140 860.202C1181.72 860.202 1215.55 826.309 1215.55 784.5C1215.55 742.691 1181.72 708.798 1140 708.798ZM1067.74 784.5C1067.74 744.509 1100.09 712.09 1140 712.09C1179.91 712.09 1212.26 744.509 1212.26 784.5C1212.26 824.492 1179.91 856.911 1140 856.911C1100.09 856.911 1067.74 824.492 1067.74 784.5Z" fill="#FF2F2F"/>
<path fill-rule="evenodd" clip-rule="evenodd" d="M1140 696.456C1091.47 696.456 1052.13 735.874 1052.13 784.5C1052.13 833.126 1091.47 872.545 1140 872.545C1188.53 872.545 1227.87 833.126 1227.87 784.5C1227.87 735.874 1188.53 696.456 1140 696.456ZM1055.42 784.5C1055.42 737.692 1093.29 699.747 1140 699.747C1186.71 699.747 1224.58 737.692 1224.58 784.5C1224.58 831.308 1186.71 869.254 1140 869.254C1093.29 869.254 1055.42 831.308 1055.42 784.5Z" fill="#FF2F2F"/>
<path fill-rule="evenodd" clip-rule="evenodd" d="M1039.81 784.5C1039.81 729.058 1084.67 684.113 1140 684.113C1195.33 684.113 1240.19 729.058 1240.19 784.5C1240.19 839.943 1195.33 884.888 1140 884.888C1084.67 884.888 1039.81 839.943 1039.81 784.5ZM1140 687.404C1086.48 687.404 1043.1 730.876 1043.1 784.5C1043.1 838.125 1086.48 881.596 1140 881.596C1193.52 881.596 1236.9 838.125 1236.9 784.5C1236.9 730.876 1193.52 687.404 1140 687.404Z" fill="#FF2F2F"/>
<path fill-rule="evenodd" clip-rule="evenodd" d="M1027.5 784.5C1027.5 722.241 1077.87 671.77 1140 671.77C1202.13 671.77 1252.5 722.241 1252.5 784.5C1252.5 846.759 1202.13 897.23 1140 897.23C1077.87 897.23 1027.5 846.759 1027.5 784.5ZM1140 675.061C1079.68 675.061 1030.78 724.059 1030.78 784.5C1030.78 844.942 1079.68 893.939 1140 893.939C1200.32 893.939 1249.22 844.942 1249.22 784.5C1249.22 724.059 1200.32 675.061 1140 675.061Z" fill="#FF2F2F"/>
<path fill-rule="evenodd" clip-rule="evenodd" d="M1015.18 784.5C1015.18 715.424 1071.06 659.427 1140 659.427C1208.94 659.427 1264.82 715.424 1264.82 784.5C1264.82 853.576 1208.94 909.573 1140 909.573C1071.06 909.573 1015.18 853.576 1015.18 784.5ZM1140 662.719C1072.88 662.719 1018.46 717.242 1018.46 784.5C1018.46 851.758 1072.88 906.282 1140 906.282C1207.12 906.282 1261.54 851.758 1261.54 784.5C1261.54 717.242 1207.12 662.719 1140 662.719Z" fill="#FF2F2F"/>
<path fill-rule="evenodd" clip-rule="evenodd" d="M1140 647.085C1064.26 647.085 1002.86 708.608 1002.86 784.5C1002.86 860.393 1064.26 921.916 1140 921.916C1215.74 921.916 1277.14 860.393 1277.14 784.5C1277.14 708.608 1215.74 647.085 1140 647.085ZM1006.15 784.5C1006.15 710.426 1066.07 650.376 1140 650.376C1213.93 650.376 1273.85 710.426 1273.85 784.5C1273.85 858.575 1213.93 918.624 1140 918.624C1066.07 918.624 1006.15 858.575 1006.15 784.5Z" fill="#FF2F2F"/>
<path fill-rule="evenodd" clip-rule="evenodd" d="M990.543 784.5C990.543 701.791 1057.46 634.742 1140 634.742C1222.54 634.742 1289.46 701.791 1289.46 784.5C1289.46 867.209 1222.54 934.259 1140 934.259C1057.46 934.259 990.543 867.209 990.543 784.5ZM1140 638.033C1059.27 638.033 993.828 703.609 993.828 784.5C993.828 865.392 1059.27 930.967 1140 930.967C1220.73 930.967 1286.17 865.392 1286.17 784.5C1286.17 703.609 1220.73 638.033 1140 638.033Z" fill="#FF2F2F"/>
<path fill-rule="evenodd" clip-rule="evenodd" d="M1140 622.399C1050.65 622.399 978.225 694.974 978.225 784.5C978.225 874.026 1050.65 946.601 1140 946.601C1229.35 946.601 1301.77 874.026 1301.77 784.5C1301.77 694.974 1229.35 622.399 1140 622.399ZM981.51 784.5C981.51 696.792 1052.47 625.691 1140 625.691C1227.53 625.691 1298.49 696.792 1298.49 784.5C1298.49 872.208 1227.53 943.31 1140 943.31C1052.47 943.31 981.51 872.208 981.51 784.5Z" fill="#FF2F2F"/>
<path fill-rule="evenodd" clip-rule="evenodd" d="M965.907 784.5C965.907 688.158 1043.85 610.057 1140 610.057C1236.15 610.057 1314.09 688.158 1314.09 784.5C1314.09 880.843 1236.15 958.944 1140 958.944C1043.85 958.944 965.907 880.843 965.907 784.5ZM1140 613.348C1045.67 613.348 969.192 689.975 969.192 784.5C969.192 879.025 1045.67 955.653 1140 955.653C1234.33 955.653 1310.81 879.025 1310.81 784.5C1310.81 689.975 1234.33 613.348 1140 613.348Z" fill="#FF2F2F"/>
<path fill-rule="evenodd" clip-rule="evenodd" d="M1140 597.714C1037.05 597.714 953.589 681.341 953.589 784.5C953.589 887.66 1037.05 971.287 1140 971.287C1242.95 971.287 1326.41 887.66 1326.41 784.5C1326.41 681.341 1242.95 597.714 1140 597.714ZM956.874 784.5C956.874 683.159 1038.86 601.005 1140 601.005C1241.14 601.005 1323.13 683.159 1323.13 784.5C1323.13 885.842 1241.14 967.995 1140 967.995C1038.86 967.995 956.874 885.842 956.874 784.5Z" fill="#FF2F2F"/>
<path fill-rule="evenodd" clip-rule="evenodd" d="M941.272 784.5C941.272 674.524 1030.25 585.371 1140 585.371C1249.75 585.371 1338.73 674.524 1338.73 784.5C1338.73 894.476 1249.75 983.629 1140 983.629C1030.25 983.629 941.272 894.476 941.272 784.5ZM1140 588.662C1032.06 588.662 944.556 676.342 944.556 784.5C944.556 892.658 1032.06 980.338 1140 980.338C1247.94 980.338 1335.44 892.658 1335.44 784.5C1335.44 676.342 1247.94 588.662 1140 588.662Z" fill="#FF2F2F"/>
<path fill-rule="evenodd" clip-rule="evenodd" d="M1140 573.028C1023.44 573.028 928.954 667.708 928.954 784.5C928.954 901.293 1023.44 995.972 1140 995.972C1256.56 995.972 1351.05 901.293 1351.05 784.5C1351.05 667.708 1256.56 573.028 1140 573.028ZM932.238 784.5C932.238 669.525 1025.26 576.32 1140 576.32C1254.74 576.32 1347.76 669.525 1347.76 784.5C1347.76 899.475 1254.74 992.681 1140 992.681C1025.26 992.681 932.238 899.475 932.238 784.5Z" fill="#FF2F2F"/>
<path fill-rule="evenodd" clip-rule="evenodd" d="M916.636 784.5C916.636 660.891 1016.64 560.686 1140 560.686C1263.36 560.686 1363.36 660.891 1363.36 784.5C1363.36 908.11 1263.36 1008.31 1140 1008.31C1016.64 1008.31 916.636 908.11 916.636 784.5ZM1140 563.977C1018.45 563.977 919.921 662.709 919.921 784.5C919.921 906.292 1018.45 1005.02 1140 1005.02C1261.55 1005.02 1360.08 906.292 1360.08 784.5C1360.08 662.709 1261.55 563.977 1140 563.977Z" fill="#FF2F2F"/>
<path fill-rule="evenodd" clip-rule="evenodd" d="M1140 548.343C1009.84 548.343 904.318 654.074 904.318 784.5C904.318 914.926 1009.84 1020.66 1140 1020.66C1270.16 1020.66 1375.68 914.926 1375.68 784.5C1375.68 654.074 1270.16 548.343 1140 548.343ZM907.603 784.5C907.603 655.892 1011.65 551.634 1140 551.634C1268.35 551.634 1372.4 655.892 1372.4 784.5C1372.4 913.109 1268.35 1017.37 1140 1017.37C1011.65 1017.37 907.603 913.109 907.603 784.5Z" fill="#FF2F2F"/>
<path fill-rule="evenodd" clip-rule="evenodd" d="M892 784.5C892 647.257 1003.03 536 1140 536C1276.97 536 1388 647.257 1388 784.5C1388 921.743 1276.97 1033 1140 1033C1003.03 1033 892 921.743 892 784.5ZM1140 539.292C1004.85 539.292 895.285 649.075 895.285 784.5C895.285 919.925 1004.85 1029.71 1140 1029.71C1275.15 1029.71 1384.72 919.925 1384.72 784.5C1384.72 649.075 1275.15 539.292 1140 539.292Z" fill="#FF2F2F"/>
</g>
</svg>
