<svg width="750" height="246" viewBox="0 0 750 246" fill="none" xmlns="http://www.w3.org/2000/svg">
<mask id="mask0_334_391" style="mask-type:alpha" maskUnits="userSpaceOnUse" x="0" y="0" width="750" height="246">
<rect width="750" height="246" rx="123" fill="#D9D9D9"/>
</mask>
<g mask="url(#mask0_334_391)">
<rect x="-43" y="-86" width="875" height="404" rx="202" fill="white"/>
<path d="M692 28H178V226H692V28Z" fill="white"/>
<path d="M305.776 78.9319C310.261 78.9319 314.365 79.6298 318.089 81.0152C321.823 82.4058 325.052 84.1715 327.776 86.3069C330.495 88.4319 332.631 90.5933 334.172 92.7861C335.724 94.9683 336.506 96.8069 336.506 98.3069L332.339 100.39V88.7027C332.339 85.9267 333.24 83.609 335.047 81.7444C336.865 79.8694 339.162 78.9319 341.943 78.9319C344.719 78.9319 347.011 79.8433 348.818 81.6611C350.636 83.484 351.547 85.8277 351.547 88.7027V159.89C351.547 169.182 349.547 176.625 345.547 182.224C341.547 187.817 336.287 191.869 329.776 194.369C323.276 196.88 316.287 198.14 308.818 198.14C306.677 198.14 303.901 197.869 300.485 197.328C297.079 196.796 293.829 196.161 290.735 195.411C287.651 194.671 285.302 193.984 283.693 193.349C280.495 191.958 278.282 190.224 277.047 188.14C275.823 186.057 275.589 183.838 276.339 181.494C277.297 178.411 278.839 176.307 280.964 175.182C283.099 174.057 285.344 173.921 287.693 174.786C288.761 175.104 290.516 175.744 292.964 176.703C295.422 177.661 298.115 178.536 301.047 179.328C303.99 180.13 306.579 180.536 308.818 180.536C316.818 180.536 322.735 178.932 326.568 175.724C330.412 172.526 332.339 168.104 332.339 162.453V148.536L334.256 149.974C334.256 151.364 333.532 153.046 332.089 155.015C330.657 156.989 328.683 158.942 326.172 160.869C323.672 162.786 320.714 164.411 317.297 165.744C313.881 167.078 310.256 167.744 306.422 167.744C298.849 167.744 292.026 165.859 285.943 162.078C279.86 158.286 275.052 153.057 271.526 146.39C268.011 139.724 266.256 132.067 266.256 123.411C266.256 114.677 268.011 106.974 271.526 100.307C275.052 93.6402 279.802 88.4111 285.776 84.6194C291.745 80.8277 298.412 78.9319 305.776 78.9319ZM308.818 96.5361C304.011 96.5361 299.797 97.7131 296.172 100.057C292.547 102.406 289.719 105.609 287.693 109.661C285.662 113.718 284.651 118.302 284.651 123.411C284.651 128.427 285.662 132.963 287.693 137.015C289.719 141.073 292.547 144.276 296.172 146.619C299.797 148.968 304.011 150.14 308.818 150.14C313.719 150.14 317.985 148.968 321.61 146.619C325.245 144.276 328.073 141.073 330.089 137.015C332.115 132.963 333.131 128.427 333.131 123.411C333.131 118.302 332.115 113.718 330.089 109.661C328.073 105.609 325.245 102.406 321.61 100.057C317.985 97.7131 313.719 96.5361 308.818 96.5361Z" fill="#8A3232"/>
<path d="M393.148 156.39C393.148 159.156 392.211 161.474 390.336 163.349C388.471 165.213 386.153 166.14 383.377 166.14C380.711 166.14 378.466 165.213 376.648 163.349C374.841 161.474 373.94 159.156 373.94 156.39V57.4944C373.94 54.734 374.867 52.4215 376.732 50.5569C378.607 48.6819 380.924 47.7444 383.69 47.7444C386.466 47.7444 388.737 48.6819 390.502 50.5569C392.263 52.4215 393.148 54.734 393.148 57.4944V156.39Z" fill="#8A3232"/>
<path d="M479.056 80.5361C481.833 80.5361 484.124 81.4736 485.931 83.3486C487.749 85.2132 488.661 87.5309 488.661 90.307V158.307C488.661 168.109 486.817 175.916 483.14 181.724C479.458 187.541 474.52 191.729 468.327 194.286C462.145 196.854 455.213 198.14 447.536 198.14C444.119 198.14 440.484 197.869 436.64 197.328C432.806 196.797 429.666 196 427.223 194.932C424.015 193.557 421.796 191.828 420.577 189.744C419.353 187.661 419.119 185.442 419.869 183.099C420.827 180 422.369 177.89 424.494 176.765C426.629 175.651 428.874 175.526 431.223 176.39C432.931 176.916 435.166 177.734 437.931 178.849C440.708 179.974 443.911 180.536 447.536 180.536C452.437 180.536 456.515 179.869 459.765 178.536C463.025 177.203 465.484 174.958 467.14 171.807C468.791 168.666 469.619 164.38 469.619 158.932V148.224L472.973 152.057C471.166 155.588 468.9 158.494 466.181 160.786C463.458 163.078 460.228 164.817 456.494 165.994C452.754 167.161 448.494 167.744 443.702 167.744C438.046 167.744 433.109 166.437 428.89 163.828C424.681 161.203 421.4 157.573 419.056 152.932C416.708 148.297 415.536 142.989 415.536 137.015V90.307C415.536 87.5309 416.437 85.2132 418.244 83.3486C420.062 81.4736 422.359 80.5361 425.14 80.5361C427.916 80.5361 430.208 81.4736 432.015 83.3486C433.833 85.2132 434.744 87.5309 434.744 90.307V131.265C434.744 138.198 436.265 143.078 439.306 145.911C442.348 148.734 446.583 150.14 452.015 150.14C455.749 150.14 458.895 149.427 461.452 147.994C464.02 146.552 465.994 144.422 467.369 141.599C468.754 138.765 469.452 135.323 469.452 131.265V90.307C469.452 87.5309 470.353 85.2132 472.161 83.3486C473.978 81.4736 476.275 80.5361 479.056 80.5361Z" fill="#8A3232"/>
<path d="M518.375 169.142C515.401 169.142 512.937 168.142 510.979 166.142C509.031 164.132 508.062 161.632 508.062 158.642V87.5798C508.062 84.5954 509.031 82.1006 510.979 80.1006C512.937 78.0902 515.401 77.0798 518.375 77.0798C521.359 77.0798 523.822 78.0902 525.77 80.1006C527.729 82.1006 528.708 84.5954 528.708 87.5798V103.746L527.5 92.2256C528.76 89.4756 530.395 87.0381 532.395 84.9131C534.406 82.7881 536.677 81.012 539.208 79.5798C541.734 78.137 544.427 77.0745 547.291 76.3923C550.166 75.6995 553.031 75.3506 555.895 75.3506C559.338 75.3506 562.234 76.3298 564.583 78.2881C566.942 80.236 568.125 82.5277 568.125 85.1631C568.125 88.9548 567.145 91.6839 565.187 93.3506C563.239 95.0068 561.125 95.8298 558.833 95.8298C556.651 95.8298 554.671 95.4339 552.895 94.6423C551.114 93.8402 549.072 93.4339 546.77 93.4339C544.713 93.4339 542.625 93.9235 540.5 94.8923C538.375 95.8662 536.421 97.387 534.645 99.4548C532.864 101.512 531.427 104.059 530.333 107.101C529.25 110.142 528.708 113.736 528.708 117.871V158.642C528.708 161.632 527.729 164.132 525.77 166.142C523.822 168.142 521.359 169.142 518.375 169.142Z" fill="#C33838"/>
<path d="M658.119 75.3506C661.103 75.3506 663.567 76.3298 665.515 78.2881C667.457 80.236 668.431 82.7568 668.431 85.8506V158.642C668.431 161.632 667.457 164.132 665.515 166.142C663.567 168.142 661.103 169.142 658.119 169.142C655.129 169.142 652.661 168.142 650.702 166.142C648.754 164.132 647.786 161.632 647.786 158.642V150.205L651.577 151.767C651.577 153.257 650.77 155.059 649.161 157.184C647.562 159.309 645.379 161.408 642.619 163.476C639.869 165.533 636.624 167.283 632.89 168.726C629.166 170.153 625.124 170.871 620.765 170.871C612.848 170.871 605.671 168.84 599.244 164.767C592.827 160.684 587.749 155.059 584.015 147.892C580.291 140.726 578.431 132.496 578.431 123.205C578.431 113.788 580.291 105.496 584.015 98.3298C587.749 91.1631 592.77 85.5485 599.077 81.4756C605.395 77.3923 612.395 75.3506 620.077 75.3506C625.004 75.3506 629.536 76.1006 633.661 77.6006C637.796 79.0902 641.39 80.9756 644.431 83.2673C647.473 85.5589 649.827 87.887 651.494 90.2464C653.161 92.5954 653.994 94.5745 653.994 96.1839L647.786 98.4131V85.8506C647.786 82.8662 648.754 80.3714 650.702 78.3714C652.661 76.361 655.129 75.3506 658.119 75.3506ZM623.348 151.934C628.4 151.934 632.817 150.679 636.598 148.163C640.39 145.637 643.338 142.194 645.452 137.83C647.577 133.47 648.64 128.595 648.64 123.205C648.64 117.694 647.577 112.757 645.452 108.392C643.338 104.033 640.39 100.595 636.598 98.0798C632.817 95.5537 628.4 94.2881 623.348 94.2881C618.416 94.2881 614.056 95.5537 610.265 98.0798C606.483 100.595 603.536 104.033 601.411 108.392C599.286 112.757 598.223 117.694 598.223 123.205C598.223 128.595 599.286 133.47 601.411 137.83C603.536 142.194 606.483 145.637 610.265 148.163C614.056 150.679 618.416 151.934 623.348 151.934Z" fill="#C33838"/>
<mask id="mask1_334_391" style="mask-type:luminance" maskUnits="userSpaceOnUse" x="588" y="91" width="70" height="70">
<path d="M588.25 91.3489H657.776V160.875H588.25V91.3489Z" fill="white"/>
</mask>
<g mask="url(#mask1_334_391)">
<mask id="mask2_334_391" style="mask-type:luminance" maskUnits="userSpaceOnUse" x="588" y="91" width="70" height="70">
<path d="M623.016 91.3489C603.813 91.3489 588.25 106.911 588.25 126.109C588.25 145.312 603.813 160.875 623.016 160.875C642.214 160.875 657.776 145.312 657.776 126.109C657.776 106.911 642.214 91.3489 623.016 91.3489Z" fill="white"/>
</mask>
<g mask="url(#mask2_334_391)">
<mask id="mask3_334_391" style="mask-type:luminance" maskUnits="userSpaceOnUse" x="587" y="91" width="71" height="71">
<path d="M658 91H587.333V161.667H658V91Z" fill="white"/>
</mask>
<g mask="url(#mask3_334_391)">
<mask id="mask4_334_391" style="mask-type:luminance" maskUnits="userSpaceOnUse" x="588" y="91" width="70" height="70">
<path d="M588.25 91.3489H657.776V160.875H588.25V91.3489Z" fill="white"/>
</mask>
<g mask="url(#mask4_334_391)">
<mask id="mask5_334_391" style="mask-type:luminance" maskUnits="userSpaceOnUse" x="588" y="91" width="70" height="70">
<path d="M623.016 91.3489C603.813 91.3489 588.25 106.911 588.25 126.109C588.25 145.312 603.813 160.875 623.016 160.875C642.214 160.875 657.776 145.312 657.776 126.109C657.776 106.911 642.214 91.3489 623.016 91.3489Z" fill="white"/>
</mask>
<g mask="url(#mask5_334_391)">
<path d="M588.25 91.3489H657.776V160.875H588.25V91.3489Z" fill="#C33838"/>
</g>
</g>
</g>
</g>
</g>
<mask id="mask6_334_391" style="mask-type:luminance" maskUnits="userSpaceOnUse" x="598" y="91" width="45" height="63">
<path d="M598.771 91.3489H642.771V153.349H598.771V91.3489Z" fill="white"/>
</mask>
<g mask="url(#mask6_334_391)">
<path d="M643.229 130.76C643.229 143.036 633.281 152.995 620.995 152.995C608.713 152.995 598.76 143.036 598.76 130.76C598.76 118.479 620.995 91.354 620.995 91.354C620.995 91.354 643.229 118.479 643.229 130.76Z" fill="white"/>
</g>
<path d="M179.542 100.526C179.542 94.1538 178.287 87.8436 175.848 81.9561C173.409 76.0686 169.835 70.7191 165.329 66.213C160.824 61.7069 155.474 58.1325 149.587 55.6938C143.7 53.2552 137.39 52 131.018 52L131.018 100.526H179.542Z" fill="#FF876B"/>
<path d="M229.036 150.994C229.036 157.367 227.781 163.677 225.342 169.564C222.904 175.452 219.33 180.801 214.824 185.307C210.318 189.813 204.969 193.388 199.082 195.826C193.194 198.265 186.885 199.52 180.512 199.52L180.512 150.994H229.036Z" fill="#8A3232"/>
<path d="M180.513 150.023C180.513 143.651 181.768 137.34 184.206 131.453C186.645 125.565 190.219 120.216 194.725 115.71C199.231 111.204 204.58 107.629 210.467 105.191C216.354 102.752 222.664 101.497 229.036 101.497L229.036 150.023H180.513Z" fill="#C33838"/>
<path d="M131.018 150.994C131.018 157.367 132.273 163.677 134.711 169.564C137.15 175.452 140.724 180.801 145.23 185.307C149.736 189.813 155.085 193.388 160.972 195.826C166.859 198.265 173.169 199.52 179.541 199.52L179.541 150.994H131.018Z" fill="#FF876B"/>
<path d="M81.524 100.526C81.524 94.1538 82.7791 87.8436 85.2176 81.9561C87.6562 76.0686 91.2304 70.7191 95.7363 66.213C100.242 61.7069 105.591 58.1325 111.479 55.6938C117.366 53.2552 123.676 52 130.048 52L130.048 100.526H81.524Z" fill="#8A3232"/>
<path d="M130.048 101.497C130.048 107.87 128.792 114.18 126.354 120.067C123.915 125.955 120.341 131.304 115.835 135.81C111.329 140.316 105.98 143.891 100.093 146.33C94.2058 148.768 87.896 150.023 81.5238 150.023L81.5238 101.497H130.048Z" fill="#C33838"/>
<ellipse cx="155.28" cy="125.76" rx="24.2619" ry="24.2632" transform="rotate(180 155.28 125.76)" fill="#FFA953"/>
</g>
</svg>
