<svg width="1080" height="724" viewBox="0 0 1080 724" fill="none" xmlns="http://www.w3.org/2000/svg">
<path d="M659.047 238.095C659.047 206.828 652.889 175.867 640.923 146.98C628.958 118.093 611.42 91.8457 589.311 69.7365C567.202 47.6273 540.954 30.0893 512.067 18.1239C483.18 6.15851 452.219 -1.36673e-06 420.952 0L420.952 238.095H659.047Z" fill="#FF876B"/>
<path d="M901.906 485.714C901.906 516.981 895.747 547.942 883.782 576.829C871.816 605.716 854.279 631.964 832.169 654.073C810.06 676.182 783.813 693.72 754.926 705.686C726.039 717.651 695.078 723.81 663.811 723.81L663.811 485.714H901.906Z" fill="#8A3232"/>
<path d="M663.81 480.953C663.81 449.685 669.968 418.725 681.933 389.837C693.899 360.95 711.437 334.703 733.546 312.594C755.655 290.485 781.903 272.947 810.79 260.981C839.677 249.016 870.638 242.857 901.905 242.857L901.905 480.953H663.81Z" fill="#C33838"/>
<path d="M420.953 485.714C420.953 516.981 427.111 547.942 439.077 576.829C451.042 605.716 468.58 631.964 490.689 654.073C512.798 676.182 539.046 693.72 567.933 705.686C596.82 717.651 627.781 723.81 659.048 723.81L659.048 485.714H420.953Z" fill="#FF876B"/>
<path d="M178.095 238.095C178.095 206.828 184.253 175.867 196.219 146.98C208.184 118.093 225.722 91.8457 247.831 69.7365C269.94 47.6273 296.188 30.0893 325.075 18.1239C353.962 6.15851 384.923 -1.36673e-06 416.19 0L416.19 238.095H178.095Z" fill="#8A3232"/>
<path d="M416.19 242.857C416.19 274.124 410.032 305.085 398.067 333.972C386.101 362.859 368.563 389.107 346.454 411.216C324.345 433.325 298.097 450.863 269.21 462.828C240.323 474.794 209.362 480.952 178.095 480.952L178.095 242.857H416.19Z" fill="#C33838"/>
<circle cx="539.999" cy="361.905" r="119.048" transform="rotate(180 539.999 361.905)" fill="#FFA953"/>
</svg>
