<svg width="551" height="456" viewBox="0 0 551 456" fill="none" xmlns="http://www.w3.org/2000/svg">
<path d="M351 150C351 130.302 347.12 110.796 339.582 92.5975C332.044 74.3986 320.995 57.8628 307.066 43.934C293.137 30.0052 276.601 18.9563 258.403 11.4181C240.204 3.87986 220.698 -8.61039e-07 201 0V150H351Z" fill="#32838A"/>
<path d="M48 150C48 130.302 51.8799 110.796 59.4181 92.5975C66.9563 74.3986 78.0052 57.8628 91.934 43.934C105.863 30.0052 122.399 18.9563 140.597 11.4181C158.796 3.87986 178.302 -8.61039e-07 198 0V150H48Z" fill="#64BC69"/>
<path d="M198 153C198 172.698 194.12 192.204 186.582 210.403C179.044 228.601 167.995 245.137 154.066 259.066C140.137 272.995 123.601 284.044 105.403 291.582C87.2037 299.12 67.6983 303 48 303V153H198Z" fill="#FF876B"/>
<path d="M201 306C201 325.698 204.88 345.204 212.418 363.403C219.956 381.601 231.005 398.137 244.934 412.066C258.863 425.995 275.399 437.044 293.597 444.582C311.796 452.12 331.302 456 351 456V306H201Z" fill="#32838A"/>
<path d="M504 306C504 325.698 500.12 345.204 492.582 363.403C485.044 381.601 473.995 398.137 460.066 412.066C446.137 425.995 429.601 437.044 411.403 444.582C393.204 452.12 373.698 456 354 456V306H504Z" fill="#64BC69"/>
<path d="M354 303C354 283.302 357.88 263.796 365.418 245.597C372.956 227.399 384.005 210.863 397.934 196.934C411.863 183.005 428.399 171.956 446.597 164.418C464.796 156.88 484.302 153 504 153V303H354Z" fill="#FF876B"/>
<circle cx="276" cy="228" r="75" transform="rotate(180 276 228)" fill="#FFCC00"/>
</svg>
